<svg xmlns="http://www.w3.org/2000/svg" xmlns:xlink="http://www.w3.org/1999/xlink" width="500" zoomAndPan="magnify" viewBox="0 0 375 374.999991" height="500" preserveAspectRatio="xMidYMid meet" version="1.0"><defs><g/><clipPath id="6d88b1a655"><path d="M 158.183594 159.46875 L 209.183594 159.46875 L 209.183594 190.96875 L 158.183594 190.96875 Z M 158.183594 159.46875 " clip-rule="nonzero"/></clipPath><clipPath id="263ac9a22d"><path d="M 166 159.46875 L 209.183594 159.46875 L 209.183594 190.96875 L 166 190.96875 Z M 166 159.46875 " clip-rule="nonzero"/></clipPath></defs><rect x="-37.5" width="450" fill="#ffffff" y="-37.499999" height="449.999989" fill-opacity="1"/><rect x="-37.5" width="450" fill="#f3f6fa" y="-37.499999" height="449.999989" fill-opacity="1"/><g clip-path="url(#6d88b1a655)"><path stroke-linecap="butt" transform="matrix(0.687331, 0, 0, 0.682848, 158.184561, 159.54825)" fill="none" stroke-linejoin="miter" d="M 68.100515 44.898426 L 6.102362 44.898426 C 3.300539 44.898426 0.998839 42.598773 0.998839 39.801433 L 0.998839 6.101791 C 0.998839 3.298732 3.300539 0.999079 6.102362 0.999079 L 68.100515 0.999079 C 70.902338 0.999079 73.198356 3.298732 73.198356 6.101791 L 73.198356 39.898682 C 73.198356 42.701742 70.902338 44.898426 68.100515 44.898426 Z M 68.100515 44.898426 " stroke="#000000" stroke-width="2" stroke-opacity="1" stroke-miterlimit="10"/><path stroke-linecap="butt" transform="matrix(0.687331, 0, 0, 0.682848, 158.184561, 159.54825)" fill="none" stroke-linejoin="miter" d="M 0.998839 33.897847 L 21.401567 20.900802 C 22.69734 20.099928 24.300005 20.099928 25.499163 20.998051 L 43.702489 33.897847 C 45.100559 34.898939 46.902137 34.80169 48.197909 33.697628 L 73.101741 13.200969 " stroke="#000000" stroke-width="2" stroke-opacity="1" stroke-miterlimit="10"/></g><g clip-path="url(#263ac9a22d)"><path stroke-linecap="butt" transform="matrix(0.687331, 0, 0, 0.682848, 158.184561, 159.54825)" fill="none" stroke-linejoin="miter" d="M 50.999732 15.100185 C 50.999732 15.815251 50.863335 16.507435 50.590541 17.165296 C 50.317747 17.828878 49.925605 18.412372 49.419799 18.915779 C 48.913994 19.424906 48.328623 19.813902 47.663687 20.088487 C 47.004435 20.363073 46.316766 20.500365 45.600681 20.500365 C 44.884597 20.500365 44.196928 20.363073 43.531992 20.088487 C 42.87274 19.813902 42.287369 19.424906 41.781563 18.915779 C 41.275758 18.412372 40.883616 17.828878 40.610822 17.165296 C 40.338028 16.507435 40.201631 15.815251 40.201631 15.100185 C 40.201631 14.385119 40.338028 13.692935 40.610822 13.035074 C 40.883616 12.371492 41.275758 11.787998 41.781563 11.278871 C 42.287369 10.775464 42.87274 10.386468 43.531992 10.111883 C 44.196928 9.837297 44.884597 9.700005 45.600681 9.700005 C 46.316766 9.700005 47.004435 9.837297 47.663687 10.111883 C 48.328623 10.386468 48.913994 10.775464 49.419799 11.278871 C 49.925605 11.787998 50.317747 12.371492 50.590541 13.035074 C 50.863335 13.692935 50.999732 14.385119 50.999732 15.100185 Z M 50.999732 15.100185 " stroke="#000000" stroke-width="2" stroke-opacity="1" stroke-miterlimit="10"/></g><path stroke-linecap="round" transform="matrix(0.749671, 0.0222213, -0.0222213, 0.749671, 165.677514, 151.397685)" fill="none" stroke-linejoin="miter" d="M 0.502366 0.501964 L 67.641231 0.502333 " stroke="#000000" stroke-width="1" stroke-opacity="1" stroke-miterlimit="4"/><path stroke-linecap="round" transform="matrix(-0.257435, 0.704434, -0.704434, -0.257435, 216.649209, 153.18768)" fill="none" stroke-linejoin="miter" d="M 0.498859 0.500852 L 30.842838 0.50214 " stroke="#000000" stroke-width="1" stroke-opacity="1" stroke-miterlimit="4"/><path stroke-linecap="round" transform="matrix(-0.409345, 0.62844, -0.62844, -0.409345, 166.415737, 151.608592)" fill="none" stroke-linejoin="miter" d="M 0.499522 0.497776 L 17.402908 0.501861 " stroke="#000000" stroke-width="1" stroke-opacity="1" stroke-miterlimit="4"/><g fill="#000000" fill-opacity="1"><g transform="translate(143.144377, 211.020258)"><g><path d="M 1.359375 0 L 1.359375 -13.65625 L 4.375 -13.65625 L 4.375 0 Z M 1.359375 0 "/></g></g></g><g fill="#000000" fill-opacity="1"><g transform="translate(151.394814, 211.020258)"><g><path d="M 12.578125 -13.65625 L 14.921875 -13.65625 L 14.921875 0 L 12.265625 0 L 12.265625 -8.09375 L 9.125 -2.25 L 7.1875 -2.25 L 4.046875 -8.015625 L 4.046875 0 L 1.390625 0 L 1.390625 -13.65625 L 3.78125 -13.65625 L 8.171875 -5.3125 Z M 12.578125 -13.65625 "/></g></g></g><g fill="#000000" fill-opacity="1"><g transform="translate(170.219079, 211.020258)"><g><path d="M 11.78125 0 L 10.484375 -3.015625 L 4.125 -3.015625 L 2.828125 0 L -0.21875 0 L 6.0625 -13.65625 L 8.484375 -13.65625 L 14.765625 0 Z M 5.109375 -5.3125 L 9.5 -5.3125 L 7.296875 -10.421875 Z M 5.109375 -5.3125 "/></g></g></g><g fill="#000000" fill-opacity="1"><g transform="translate(187.281038, 211.020258)"><g><path d="M 13.09375 -7.53125 L 13.09375 -0.859375 C 12.4375 -0.535156 11.660156 -0.28125 10.765625 -0.09375 C 9.878906 0.0820312 8.960938 0.171875 8.015625 0.171875 C 6.566406 0.171875 5.3125 -0.109375 4.25 -0.671875 C 3.195312 -1.234375 2.382812 -2.039062 1.8125 -3.09375 C 1.25 -4.144531 0.96875 -5.394531 0.96875 -6.84375 C 0.96875 -8.257812 1.25 -9.492188 1.8125 -10.546875 C 2.375 -11.597656 3.175781 -12.40625 4.21875 -12.96875 C 5.269531 -13.539062 6.492188 -13.828125 7.890625 -13.828125 C 8.867188 -13.828125 9.78125 -13.691406 10.625 -13.421875 C 11.46875 -13.148438 12.171875 -12.773438 12.734375 -12.296875 L 11.78125 -10.15625 C 11.144531 -10.601562 10.523438 -10.925781 9.921875 -11.125 C 9.328125 -11.332031 8.679688 -11.4375 7.984375 -11.4375 C 5.347656 -11.4375 4.03125 -9.90625 4.03125 -6.84375 C 4.03125 -5.257812 4.367188 -4.082031 5.046875 -3.3125 C 5.734375 -2.539062 6.769531 -2.15625 8.15625 -2.15625 C 8.90625 -2.15625 9.648438 -2.25 10.390625 -2.4375 L 10.390625 -5.4375 L 7.71875 -5.4375 L 7.71875 -7.53125 Z M 13.09375 -7.53125 "/></g></g></g><g fill="#000000" fill-opacity="1"><g transform="translate(204.091237, 211.020258)"><g><path d="M 1.359375 0 L 1.359375 -13.65625 L 10.765625 -13.65625 L 10.765625 -11.3125 L 4.296875 -11.3125 L 4.296875 -8.125 L 10.390625 -8.125 L 10.390625 -5.78125 L 4.296875 -5.78125 L 4.296875 -2.34375 L 10.765625 -2.34375 L 10.765625 0 Z M 1.359375 0 "/></g></g></g><g fill="#000000" fill-opacity="1"><g transform="translate(218.093368, 211.020258)"><g><path d="M 6.140625 0.171875 C 5.109375 0.171875 4.113281 0.0351562 3.15625 -0.234375 C 2.195312 -0.515625 1.40625 -0.898438 0.78125 -1.390625 L 1.75 -3.546875 C 3.0625 -2.628906 4.539062 -2.171875 6.1875 -2.171875 C 7.03125 -2.171875 7.679688 -2.304688 8.140625 -2.578125 C 8.597656 -2.859375 8.828125 -3.242188 8.828125 -3.734375 C 8.828125 -4.171875 8.617188 -4.515625 8.203125 -4.765625 C 7.785156 -5.015625 7.039062 -5.253906 5.96875 -5.484375 C 4.769531 -5.722656 3.8125 -6.015625 3.09375 -6.359375 C 2.375 -6.710938 1.847656 -7.144531 1.515625 -7.65625 C 1.191406 -8.164062 1.03125 -8.796875 1.03125 -9.546875 C 1.03125 -10.378906 1.257812 -11.117188 1.71875 -11.765625 C 2.175781 -12.410156 2.816406 -12.914062 3.640625 -13.28125 C 4.460938 -13.644531 5.421875 -13.828125 6.515625 -13.828125 C 7.484375 -13.828125 8.414062 -13.6875 9.3125 -13.40625 C 10.207031 -13.125 10.921875 -12.742188 11.453125 -12.265625 L 10.484375 -10.109375 C 9.234375 -11.023438 7.914062 -11.484375 6.53125 -11.484375 C 5.738281 -11.484375 5.113281 -11.332031 4.65625 -11.03125 C 4.207031 -10.726562 3.984375 -10.3125 3.984375 -9.78125 C 3.984375 -9.46875 4.070312 -9.210938 4.25 -9.015625 C 4.425781 -8.816406 4.71875 -8.640625 5.125 -8.484375 C 5.53125 -8.328125 6.109375 -8.164062 6.859375 -8 C 8.617188 -7.613281 9.878906 -7.113281 10.640625 -6.5 C 11.410156 -5.894531 11.796875 -5.054688 11.796875 -3.984375 C 11.796875 -2.691406 11.296875 -1.675781 10.296875 -0.9375 C 9.304688 -0.195312 7.921875 0.171875 6.140625 0.171875 Z M 6.140625 0.171875 "/></g></g></g><g fill="#000000" fill-opacity="1"><g transform="translate(151.178415, 221.57942)"><g><path d="M 2.203125 0.078125 C 1.796875 0.078125 1.441406 -0.00390625 1.140625 -0.171875 C 0.835938 -0.347656 0.601562 -0.59375 0.4375 -0.90625 C 0.28125 -1.226562 0.203125 -1.609375 0.203125 -2.046875 C 0.203125 -2.523438 0.296875 -2.941406 0.484375 -3.296875 C 0.679688 -3.660156 0.957031 -3.9375 1.3125 -4.125 C 1.675781 -4.320312 2.09375 -4.421875 2.5625 -4.421875 C 2.726562 -4.421875 2.90625 -4.40625 3.09375 -4.375 C 3.289062 -4.351562 3.457031 -4.328125 3.59375 -4.296875 C 3.726562 -4.273438 3.8125 -4.257812 3.84375 -4.25 L 3.890625 -4.171875 C 3.878906 -4.140625 3.863281 -4.066406 3.84375 -3.953125 C 3.820312 -3.835938 3.796875 -3.6875 3.765625 -3.5 C 3.742188 -3.3125 3.722656 -3.109375 3.703125 -2.890625 L 3.0625 -2.859375 C 3.0625 -2.867188 3.0625 -2.90625 3.0625 -2.96875 C 3.070312 -3.039062 3.078125 -3.117188 3.078125 -3.203125 C 3.078125 -3.398438 3.015625 -3.546875 2.890625 -3.640625 C 2.773438 -3.734375 2.585938 -3.78125 2.328125 -3.78125 C 1.960938 -3.78125 1.6875 -3.65625 1.5 -3.40625 C 1.3125 -3.15625 1.21875 -2.78125 1.21875 -2.28125 C 1.21875 -1.726562 1.316406 -1.296875 1.515625 -0.984375 C 1.722656 -0.679688 2.007812 -0.53125 2.375 -0.53125 C 2.613281 -0.53125 2.800781 -0.601562 2.9375 -0.75 C 3.082031 -0.90625 3.179688 -1.148438 3.234375 -1.484375 L 3.890625 -1.515625 C 3.878906 -1.441406 3.851562 -1.273438 3.8125 -1.015625 C 3.78125 -0.753906 3.757812 -0.503906 3.75 -0.265625 L 3.6875 -0.1875 C 3.6875 -0.1875 3.609375 -0.160156 3.453125 -0.109375 C 3.304688 -0.0664062 3.125 -0.0234375 2.90625 0.015625 C 2.6875 0.0546875 2.453125 0.078125 2.203125 0.078125 Z M 2.203125 0.078125 "/></g></g></g><g fill="#000000" fill-opacity="1"><g transform="translate(158.097189, 221.57942)"><g><path d="M 2.125 0.078125 C 1.726562 0.078125 1.382812 -0.00390625 1.09375 -0.171875 C 0.800781 -0.347656 0.578125 -0.597656 0.421875 -0.921875 C 0.273438 -1.242188 0.203125 -1.625 0.203125 -2.0625 C 0.203125 -2.53125 0.289062 -2.941406 0.46875 -3.296875 C 0.65625 -3.648438 0.914062 -3.925781 1.25 -4.125 C 1.59375 -4.320312 1.984375 -4.421875 2.421875 -4.421875 C 2.828125 -4.421875 3.175781 -4.335938 3.46875 -4.171875 C 3.757812 -4.003906 3.984375 -3.757812 4.140625 -3.4375 C 4.296875 -3.125 4.375 -2.75 4.375 -2.3125 C 4.375 -1.84375 4.28125 -1.425781 4.09375 -1.0625 C 3.90625 -0.695312 3.640625 -0.414062 3.296875 -0.21875 C 2.960938 -0.0195312 2.570312 0.078125 2.125 0.078125 Z M 2.3125 -0.5 C 2.632812 -0.5 2.882812 -0.625 3.0625 -0.875 C 3.25 -1.132812 3.34375 -1.492188 3.34375 -1.953125 C 3.34375 -2.546875 3.242188 -3 3.046875 -3.3125 C 2.859375 -3.625 2.582031 -3.78125 2.21875 -3.78125 C 1.90625 -3.78125 1.660156 -3.648438 1.484375 -3.390625 C 1.304688 -3.140625 1.21875 -2.785156 1.21875 -2.328125 C 1.21875 -1.734375 1.3125 -1.28125 1.5 -0.96875 C 1.6875 -0.65625 1.957031 -0.5 2.3125 -0.5 Z M 2.3125 -0.5 "/></g></g></g><g fill="#000000" fill-opacity="1"><g transform="translate(165.415296, 221.57942)"><g><path d="M 2.515625 0.109375 C 2.171875 -0.960938 1.816406 -2.019531 1.453125 -3.0625 L 1.40625 -3.0625 C 1.40625 -3.007812 1.394531 -2.84375 1.375 -2.5625 C 1.351562 -2.28125 1.335938 -2.050781 1.328125 -1.875 C 1.273438 -1.113281 1.25 -0.703125 1.25 -0.640625 C 1.25 -0.492188 1.320312 -0.421875 1.46875 -0.421875 L 1.6875 -0.4375 L 1.734375 -0.40625 L 1.65625 0.03125 C 1.28125 0.0078125 1.015625 0 0.859375 0 C 0.753906 0 0.628906 0.00390625 0.484375 0.015625 C 0.335938 0.0351562 0.242188 0.046875 0.203125 0.046875 L 0.234375 -0.390625 C 0.367188 -0.398438 0.460938 -0.4375 0.515625 -0.5 C 0.578125 -0.570312 0.625 -0.695312 0.65625 -0.875 C 0.6875 -1.226562 0.738281 -1.753906 0.8125 -2.453125 C 0.882812 -3.148438 0.921875 -3.53125 0.921875 -3.59375 C 0.921875 -3.71875 0.882812 -3.800781 0.8125 -3.84375 C 0.738281 -3.894531 0.601562 -3.925781 0.40625 -3.9375 L 0.375 -3.984375 L 0.4375 -4.375 C 0.800781 -4.351562 1.082031 -4.34375 1.28125 -4.34375 C 1.375 -4.34375 1.613281 -4.351562 2 -4.375 C 2.175781 -3.738281 2.425781 -2.910156 2.75 -1.890625 L 2.859375 -1.53125 L 2.921875 -1.53125 C 2.941406 -1.625 2.972656 -1.738281 3.015625 -1.875 C 3.066406 -2.007812 3.117188 -2.160156 3.171875 -2.328125 C 3.398438 -3.003906 3.617188 -3.675781 3.828125 -4.34375 C 3.921875 -4.34375 3.992188 -4.34375 4.046875 -4.34375 L 4.625 -4.34375 C 4.71875 -4.34375 4.835938 -4.347656 4.984375 -4.359375 C 5.128906 -4.367188 5.238281 -4.378906 5.3125 -4.390625 L 5.34375 -4.359375 L 5.296875 -3.953125 C 5.097656 -3.929688 4.960938 -3.894531 4.890625 -3.84375 C 4.828125 -3.800781 4.796875 -3.71875 4.796875 -3.59375 C 4.796875 -3.445312 4.8125 -3.085938 4.84375 -2.515625 C 4.882812 -1.953125 4.921875 -1.460938 4.953125 -1.046875 C 4.984375 -0.796875 5.019531 -0.628906 5.0625 -0.546875 C 5.101562 -0.460938 5.179688 -0.421875 5.296875 -0.421875 C 5.335938 -0.421875 5.375 -0.421875 5.40625 -0.421875 C 5.445312 -0.429688 5.472656 -0.4375 5.484375 -0.4375 L 5.5 -0.40625 L 5.453125 0.015625 C 5.378906 0.015625 5.316406 0.015625 5.265625 0.015625 C 5.066406 0.00390625 4.898438 0 4.765625 0 C 4.628906 0 4.453125 0.00390625 4.234375 0.015625 C 4.023438 0.0351562 3.878906 0.046875 3.796875 0.046875 L 3.84375 -0.390625 C 3.976562 -0.398438 4.078125 -0.429688 4.140625 -0.484375 C 4.203125 -0.535156 4.234375 -0.613281 4.234375 -0.71875 C 4.234375 -0.738281 4.210938 -1.019531 4.171875 -1.5625 C 4.117188 -2.269531 4.09375 -2.769531 4.09375 -3.0625 L 4.03125 -3.0625 C 3.644531 -2 3.289062 -0.960938 2.96875 0.046875 Z M 2.515625 0.109375 "/></g></g></g><g fill="#000000" fill-opacity="1"><g transform="translate(173.856945, 221.57942)"><g><path d="M 0.296875 -0.375 C 0.492188 -0.414062 0.625 -0.472656 0.6875 -0.546875 C 0.757812 -0.617188 0.796875 -0.75 0.796875 -0.9375 L 0.796875 -3.5625 C 0.796875 -3.695312 0.78125 -3.785156 0.75 -3.828125 C 0.71875 -3.878906 0.65625 -3.90625 0.5625 -3.90625 L 0.3125 -3.90625 L 0.28125 -3.953125 L 0.34375 -4.34375 L 1.265625 -4.34375 C 1.421875 -4.34375 1.738281 -4.359375 2.21875 -4.390625 L 2.1875 -3.9375 C 2.007812 -3.914062 1.894531 -3.878906 1.84375 -3.828125 C 1.789062 -3.785156 1.757812 -3.703125 1.75 -3.578125 C 1.6875 -2.515625 1.65625 -1.617188 1.65625 -0.890625 C 1.65625 -0.703125 1.671875 -0.578125 1.703125 -0.515625 C 1.742188 -0.453125 1.816406 -0.421875 1.921875 -0.421875 C 1.972656 -0.421875 2.070312 -0.429688 2.21875 -0.453125 L 2.25 -0.40625 L 2.1875 0.015625 L 1.9375 0.015625 L 1.1875 0 C 0.976562 0 0.664062 0.0195312 0.25 0.0625 Z M 0.296875 -0.375 "/></g></g></g><g fill="#000000" fill-opacity="1"><g transform="translate(179.076872, 221.57942)"><g><path d="M 3.5625 0.1875 C 3.125 -0.519531 2.679688 -1.207031 2.234375 -1.875 C 1.785156 -2.539062 1.5625 -2.867188 1.5625 -2.859375 L 1.5 -2.859375 L 1.484375 -0.734375 C 1.484375 -0.617188 1.5 -0.535156 1.53125 -0.484375 C 1.570312 -0.441406 1.632812 -0.421875 1.71875 -0.421875 L 2.015625 -0.4375 L 2.046875 -0.40625 L 1.984375 0.03125 C 1.921875 0.0195312 1.800781 0.0078125 1.625 0 C 1.457031 0 1.285156 0 1.109375 0 C 0.960938 0 0.800781 0.00390625 0.625 0.015625 C 0.457031 0.0351562 0.347656 0.046875 0.296875 0.046875 L 0.359375 -0.390625 C 0.492188 -0.410156 0.59375 -0.453125 0.65625 -0.515625 C 0.71875 -0.578125 0.75 -0.675781 0.75 -0.8125 L 0.84375 -3.5 C 0.84375 -3.644531 0.804688 -3.742188 0.734375 -3.796875 C 0.660156 -3.859375 0.515625 -3.90625 0.296875 -3.9375 L 0.25 -3.984375 L 0.296875 -4.375 C 0.335938 -4.375 0.441406 -4.367188 0.609375 -4.359375 C 0.773438 -4.347656 0.925781 -4.34375 1.0625 -4.34375 C 1.175781 -4.34375 1.300781 -4.34375 1.4375 -4.34375 C 1.570312 -4.351562 1.660156 -4.363281 1.703125 -4.375 C 2.066406 -3.769531 2.460938 -3.144531 2.890625 -2.5 C 3.316406 -1.863281 3.53125 -1.550781 3.53125 -1.5625 L 3.59375 -1.5625 L 3.578125 -3.625 C 3.578125 -3.726562 3.5625 -3.800781 3.53125 -3.84375 C 3.5 -3.882812 3.441406 -3.90625 3.359375 -3.90625 L 3.125 -3.90625 L 3.109375 -3.953125 L 3.15625 -4.375 C 3.21875 -4.363281 3.332031 -4.351562 3.5 -4.34375 C 3.664062 -4.34375 3.835938 -4.34375 4.015625 -4.34375 C 4.148438 -4.34375 4.300781 -4.347656 4.46875 -4.359375 C 4.632812 -4.367188 4.742188 -4.375 4.796875 -4.375 L 4.765625 -3.9375 C 4.617188 -3.90625 4.507812 -3.859375 4.4375 -3.796875 C 4.375 -3.734375 4.34375 -3.632812 4.34375 -3.5 L 4.25 0.09375 Z M 3.5625 0.1875 "/></g></g></g><g fill="#000000" fill-opacity="1"><g transform="translate(186.753703, 221.57942)"><g><path d="M 2.21875 0.078125 C 1.800781 0.078125 1.441406 -0.00390625 1.140625 -0.171875 C 0.835938 -0.347656 0.601562 -0.59375 0.4375 -0.90625 C 0.28125 -1.226562 0.203125 -1.609375 0.203125 -2.046875 C 0.203125 -2.535156 0.296875 -2.957031 0.484375 -3.3125 C 0.679688 -3.664062 0.957031 -3.9375 1.3125 -4.125 C 1.675781 -4.320312 2.101562 -4.421875 2.59375 -4.421875 C 2.769531 -4.421875 2.957031 -4.40625 3.15625 -4.375 C 3.351562 -4.351562 3.519531 -4.328125 3.65625 -4.296875 C 3.800781 -4.273438 3.894531 -4.257812 3.9375 -4.25 L 3.984375 -4.171875 C 3.972656 -4.140625 3.957031 -4.066406 3.9375 -3.953125 C 3.914062 -3.847656 3.890625 -3.703125 3.859375 -3.515625 C 3.835938 -3.335938 3.820312 -3.144531 3.8125 -2.9375 L 3.15625 -2.890625 C 3.164062 -2.910156 3.171875 -2.953125 3.171875 -3.015625 C 3.179688 -3.085938 3.1875 -3.171875 3.1875 -3.265625 C 3.1875 -3.453125 3.125 -3.582031 3 -3.65625 C 2.882812 -3.738281 2.695312 -3.78125 2.4375 -3.78125 C 2.019531 -3.78125 1.710938 -3.65625 1.515625 -3.40625 C 1.316406 -3.164062 1.21875 -2.789062 1.21875 -2.28125 C 1.21875 -1.726562 1.316406 -1.296875 1.515625 -0.984375 C 1.722656 -0.679688 2.007812 -0.53125 2.375 -0.53125 C 2.5 -0.53125 2.609375 -0.539062 2.703125 -0.5625 C 2.804688 -0.59375 2.882812 -0.625 2.9375 -0.65625 C 3 -0.6875 3.035156 -0.707031 3.046875 -0.71875 L 3.046875 -1.359375 C 3.046875 -1.492188 3.023438 -1.582031 2.984375 -1.625 C 2.941406 -1.664062 2.859375 -1.6875 2.734375 -1.6875 L 2.390625 -1.6875 L 2.359375 -1.734375 L 2.421875 -2.21875 C 2.523438 -2.21875 2.617188 -2.21875 2.703125 -2.21875 C 2.953125 -2.207031 3.171875 -2.203125 3.359375 -2.203125 C 3.503906 -2.203125 3.644531 -2.203125 3.78125 -2.203125 C 3.914062 -2.210938 4.003906 -2.222656 4.046875 -2.234375 L 4.09375 -1.96875 C 4.007812 -1.925781 3.945312 -1.863281 3.90625 -1.78125 C 3.875 -1.707031 3.847656 -1.601562 3.828125 -1.46875 C 3.816406 -1.332031 3.8125 -1.128906 3.8125 -0.859375 C 3.8125 -0.585938 3.828125 -0.394531 3.859375 -0.28125 L 3.796875 -0.203125 C 3.796875 -0.191406 3.71875 -0.160156 3.5625 -0.109375 C 3.414062 -0.0664062 3.222656 -0.0234375 2.984375 0.015625 C 2.753906 0.0546875 2.5 0.078125 2.21875 0.078125 Z M 2.21875 0.078125 "/></g></g></g><g fill="#000000" fill-opacity="1"><g transform="translate(193.929674, 221.57942)"><g/></g></g><g fill="#000000" fill-opacity="1"><g transform="translate(197.856845, 221.57942)"><g><path d="M 1.484375 0.078125 C 1.273438 0.078125 1.082031 0.0546875 0.90625 0.015625 C 0.738281 -0.015625 0.59375 -0.0507812 0.46875 -0.09375 C 0.351562 -0.144531 0.296875 -0.171875 0.296875 -0.171875 L 0.25 -0.265625 C 0.25 -0.296875 0.253906 -0.363281 0.265625 -0.46875 C 0.285156 -0.582031 0.304688 -0.726562 0.328125 -0.90625 C 0.347656 -1.082031 0.359375 -1.253906 0.359375 -1.421875 L 0.90625 -1.46875 C 0.90625 -1.207031 0.925781 -1.007812 0.96875 -0.875 C 1.019531 -0.738281 1.097656 -0.640625 1.203125 -0.578125 C 1.304688 -0.523438 1.460938 -0.5 1.671875 -0.5 C 1.878906 -0.5 2.046875 -0.546875 2.171875 -0.640625 C 2.304688 -0.742188 2.375 -0.878906 2.375 -1.046875 C 2.375 -1.191406 2.304688 -1.316406 2.171875 -1.421875 C 2.035156 -1.523438 1.820312 -1.644531 1.53125 -1.78125 C 1.519531 -1.789062 1.46875 -1.816406 1.375 -1.859375 C 1.039062 -2.023438 0.773438 -2.195312 0.578125 -2.375 C 0.390625 -2.550781 0.296875 -2.785156 0.296875 -3.078125 C 0.296875 -3.335938 0.375 -3.566406 0.53125 -3.765625 C 0.6875 -3.972656 0.898438 -4.132812 1.171875 -4.25 C 1.441406 -4.363281 1.753906 -4.421875 2.109375 -4.421875 C 2.304688 -4.421875 2.488281 -4.40625 2.65625 -4.375 C 2.820312 -4.351562 2.957031 -4.328125 3.0625 -4.296875 C 3.164062 -4.265625 3.226562 -4.242188 3.25 -4.234375 L 3.296875 -4.15625 C 3.296875 -4.125 3.285156 -4.050781 3.265625 -3.9375 C 3.242188 -3.832031 3.21875 -3.691406 3.1875 -3.515625 C 3.164062 -3.347656 3.148438 -3.175781 3.140625 -3 L 2.640625 -2.953125 L 2.578125 -3 C 2.578125 -3.007812 2.578125 -3.035156 2.578125 -3.078125 C 2.585938 -3.117188 2.59375 -3.171875 2.59375 -3.234375 C 2.59375 -3.441406 2.539062 -3.585938 2.4375 -3.671875 C 2.332031 -3.753906 2.160156 -3.796875 1.921875 -3.796875 C 1.734375 -3.796875 1.578125 -3.75 1.453125 -3.65625 C 1.328125 -3.570312 1.265625 -3.457031 1.265625 -3.3125 C 1.265625 -3.195312 1.300781 -3.09375 1.375 -3 C 1.457031 -2.914062 1.550781 -2.84375 1.65625 -2.78125 C 1.769531 -2.71875 1.9375 -2.632812 2.15625 -2.53125 C 2.40625 -2.414062 2.613281 -2.304688 2.78125 -2.203125 C 2.945312 -2.109375 3.082031 -1.984375 3.1875 -1.828125 C 3.300781 -1.671875 3.359375 -1.488281 3.359375 -1.28125 C 3.359375 -1.007812 3.28125 -0.769531 3.125 -0.5625 C 2.96875 -0.351562 2.75 -0.191406 2.46875 -0.078125 C 2.1875 0.0234375 1.859375 0.078125 1.484375 0.078125 Z M 1.484375 0.078125 "/></g></g></g><g fill="#000000" fill-opacity="1"><g transform="translate(204.254458, 221.57942)"><g><path d="M 2.125 0.078125 C 1.726562 0.078125 1.382812 -0.00390625 1.09375 -0.171875 C 0.800781 -0.347656 0.578125 -0.597656 0.421875 -0.921875 C 0.273438 -1.242188 0.203125 -1.625 0.203125 -2.0625 C 0.203125 -2.53125 0.289062 -2.941406 0.46875 -3.296875 C 0.65625 -3.648438 0.914062 -3.925781 1.25 -4.125 C 1.59375 -4.320312 1.984375 -4.421875 2.421875 -4.421875 C 2.828125 -4.421875 3.175781 -4.335938 3.46875 -4.171875 C 3.757812 -4.003906 3.984375 -3.757812 4.140625 -3.4375 C 4.296875 -3.125 4.375 -2.75 4.375 -2.3125 C 4.375 -1.84375 4.28125 -1.425781 4.09375 -1.0625 C 3.90625 -0.695312 3.640625 -0.414062 3.296875 -0.21875 C 2.960938 -0.0195312 2.570312 0.078125 2.125 0.078125 Z M 2.3125 -0.5 C 2.632812 -0.5 2.882812 -0.625 3.0625 -0.875 C 3.25 -1.132812 3.34375 -1.492188 3.34375 -1.953125 C 3.34375 -2.546875 3.242188 -3 3.046875 -3.3125 C 2.859375 -3.625 2.582031 -3.78125 2.21875 -3.78125 C 1.90625 -3.78125 1.660156 -3.648438 1.484375 -3.390625 C 1.304688 -3.140625 1.21875 -2.785156 1.21875 -2.328125 C 1.21875 -1.734375 1.3125 -1.28125 1.5 -0.96875 C 1.6875 -0.65625 1.957031 -0.5 2.3125 -0.5 Z M 2.3125 -0.5 "/></g></g></g><g fill="#000000" fill-opacity="1"><g transform="translate(211.572563, 221.57942)"><g><path d="M 2.125 0.078125 C 1.726562 0.078125 1.382812 -0.00390625 1.09375 -0.171875 C 0.800781 -0.347656 0.578125 -0.597656 0.421875 -0.921875 C 0.273438 -1.242188 0.203125 -1.625 0.203125 -2.0625 C 0.203125 -2.53125 0.289062 -2.941406 0.46875 -3.296875 C 0.65625 -3.648438 0.914062 -3.925781 1.25 -4.125 C 1.59375 -4.320312 1.984375 -4.421875 2.421875 -4.421875 C 2.828125 -4.421875 3.175781 -4.335938 3.46875 -4.171875 C 3.757812 -4.003906 3.984375 -3.757812 4.140625 -3.4375 C 4.296875 -3.125 4.375 -2.75 4.375 -2.3125 C 4.375 -1.84375 4.28125 -1.425781 4.09375 -1.0625 C 3.90625 -0.695312 3.640625 -0.414062 3.296875 -0.21875 C 2.960938 -0.0195312 2.570312 0.078125 2.125 0.078125 Z M 2.3125 -0.5 C 2.632812 -0.5 2.882812 -0.625 3.0625 -0.875 C 3.25 -1.132812 3.34375 -1.492188 3.34375 -1.953125 C 3.34375 -2.546875 3.242188 -3 3.046875 -3.3125 C 2.859375 -3.625 2.582031 -3.78125 2.21875 -3.78125 C 1.90625 -3.78125 1.660156 -3.648438 1.484375 -3.390625 C 1.304688 -3.140625 1.21875 -2.785156 1.21875 -2.328125 C 1.21875 -1.734375 1.3125 -1.28125 1.5 -0.96875 C 1.6875 -0.65625 1.957031 -0.5 2.3125 -0.5 Z M 2.3125 -0.5 "/></g></g></g><g fill="#000000" fill-opacity="1"><g transform="translate(218.890667, 221.57942)"><g><path d="M 3.5625 0.1875 C 3.125 -0.519531 2.679688 -1.207031 2.234375 -1.875 C 1.785156 -2.539062 1.5625 -2.867188 1.5625 -2.859375 L 1.5 -2.859375 L 1.484375 -0.734375 C 1.484375 -0.617188 1.5 -0.535156 1.53125 -0.484375 C 1.570312 -0.441406 1.632812 -0.421875 1.71875 -0.421875 L 2.015625 -0.4375 L 2.046875 -0.40625 L 1.984375 0.03125 C 1.921875 0.0195312 1.800781 0.0078125 1.625 0 C 1.457031 0 1.285156 0 1.109375 0 C 0.960938 0 0.800781 0.00390625 0.625 0.015625 C 0.457031 0.0351562 0.347656 0.046875 0.296875 0.046875 L 0.359375 -0.390625 C 0.492188 -0.410156 0.59375 -0.453125 0.65625 -0.515625 C 0.71875 -0.578125 0.75 -0.675781 0.75 -0.8125 L 0.84375 -3.5 C 0.84375 -3.644531 0.804688 -3.742188 0.734375 -3.796875 C 0.660156 -3.859375 0.515625 -3.90625 0.296875 -3.9375 L 0.25 -3.984375 L 0.296875 -4.375 C 0.335938 -4.375 0.441406 -4.367188 0.609375 -4.359375 C 0.773438 -4.347656 0.925781 -4.34375 1.0625 -4.34375 C 1.175781 -4.34375 1.300781 -4.34375 1.4375 -4.34375 C 1.570312 -4.351562 1.660156 -4.363281 1.703125 -4.375 C 2.066406 -3.769531 2.460938 -3.144531 2.890625 -2.5 C 3.316406 -1.863281 3.53125 -1.550781 3.53125 -1.5625 L 3.59375 -1.5625 L 3.578125 -3.625 C 3.578125 -3.726562 3.5625 -3.800781 3.53125 -3.84375 C 3.5 -3.882812 3.441406 -3.90625 3.359375 -3.90625 L 3.125 -3.90625 L 3.109375 -3.953125 L 3.15625 -4.375 C 3.21875 -4.363281 3.332031 -4.351562 3.5 -4.34375 C 3.664062 -4.34375 3.835938 -4.34375 4.015625 -4.34375 C 4.148438 -4.34375 4.300781 -4.347656 4.46875 -4.359375 C 4.632812 -4.367188 4.742188 -4.375 4.796875 -4.375 L 4.765625 -3.9375 C 4.617188 -3.90625 4.507812 -3.859375 4.4375 -3.796875 C 4.375 -3.734375 4.34375 -3.632812 4.34375 -3.5 L 4.25 0.09375 Z M 3.5625 0.1875 "/></g></g></g></svg>