<svg xmlns="http://www.w3.org/2000/svg" xmlns:xlink="http://www.w3.org/1999/xlink" width="80" zoomAndPan="magnify" viewBox="0 0 60 60" height="80" preserveAspectRatio="xMidYMid meet" version="1.0"><defs><g/><clipPath id="9c6012b002"><path d="M 0 0 L 60 0 L 60 59.726562 L 0 59.726562 Z M 0 0 " clip-rule="nonzero"/></clipPath><clipPath id="e9231323bf"><path d="M 9.375 -0.273438 L 50.625 -0.273438 C 55.800781 -0.273438 60 3.921875 60 9.101562 L 60 50.351562 C 60 55.527344 55.800781 59.726562 50.625 59.726562 L 9.375 59.726562 C 4.199219 59.726562 0 55.527344 0 50.351562 L 0 9.101562 C 0 3.921875 4.199219 -0.273438 9.375 -0.273438 Z M 9.375 -0.273438 " clip-rule="nonzero"/></clipPath><clipPath id="fd7b7bae2b"><path d="M 1.691406 6.753906 L 56 6.753906 L 56 41 L 1.691406 41 Z M 1.691406 6.753906 " clip-rule="nonzero"/></clipPath><clipPath id="91983d0aba"><path d="M 8 28 L 57.941406 28 L 57.941406 53.253906 L 8 53.253906 Z M 8 28 " clip-rule="nonzero"/></clipPath></defs><g fill="#000000" fill-opacity="1"><g transform="translate(37.516405, 12.075001)"><g><path d="M 0.375 0 L 0.375 -3.015625 L 0.6875 -3.015625 L 0.6875 -1.84375 L 0.734375 -1.84375 C 0.890625 -2.082031 1.113281 -2.203125 1.40625 -2.203125 C 1.664062 -2.203125 1.851562 -2.132812 1.96875 -2 C 2.082031 -1.863281 2.140625 -1.660156 2.140625 -1.390625 L 2.140625 0 L 1.828125 0 L 1.828125 -1.375 C 1.828125 -1.507812 1.804688 -1.613281 1.765625 -1.6875 C 1.734375 -1.769531 1.679688 -1.828125 1.609375 -1.859375 C 1.546875 -1.898438 1.457031 -1.921875 1.34375 -1.921875 C 1.144531 -1.921875 0.984375 -1.859375 0.859375 -1.734375 C 0.742188 -1.609375 0.6875 -1.398438 0.6875 -1.109375 L 0.6875 0 Z M 0.375 0 "/></g></g></g><g fill="#000000" fill-opacity="1"><g transform="translate(39.994451, 12.075001)"><g><path d="M 0.53125 -2.578125 C 0.46875 -2.578125 0.414062 -2.597656 0.375 -2.640625 C 0.332031 -2.679688 0.3125 -2.734375 0.3125 -2.796875 C 0.3125 -2.859375 0.332031 -2.910156 0.375 -2.953125 C 0.414062 -2.992188 0.46875 -3.015625 0.53125 -3.015625 C 0.601562 -3.015625 0.660156 -2.992188 0.703125 -2.953125 C 0.742188 -2.910156 0.765625 -2.859375 0.765625 -2.796875 C 0.765625 -2.734375 0.742188 -2.679688 0.703125 -2.640625 C 0.660156 -2.597656 0.601562 -2.578125 0.53125 -2.578125 Z M 0.375 0 L 0.375 -2.15625 L 0.6875 -2.15625 L 0.6875 0 Z M 0.375 0 "/></g></g></g><g clip-path="url(#9c6012b002)"><g clip-path="url(#e9231323bf)"><path fill="#8cad2a" d="M 0 -0.273438 L 60 -0.273438 L 60 59.726562 L 0 59.726562 Z M 0 -0.273438 " fill-opacity="1" fill-rule="nonzero"/></g></g><g clip-path="url(#fd7b7bae2b)"><path fill="#ffffff" d="M 28.878906 6.753906 L 35.21875 11.816406 L 35.21875 9.089844 L 41.898438 9.089844 L 41.898438 17.148438 L 55.382812 27.914062 C 53.933594 27.828125 52.472656 27.785156 50.996094 27.785156 C 50.089844 27.785156 49.191406 27.800781 48.296875 27.835938 L 28.878906 12.25 L 13.960938 24.15625 L 15.980469 24.15625 L 15.980469 32.222656 C 22.652344 28.53125 35.730469 26.542969 44.824219 28.042969 C 32.089844 29.121094 20.585938 33.492188 11.683594 40.070312 L 11.683594 28.453125 L 1.699219 28.453125 Z M 28.878906 6.753906 " fill-opacity="1" fill-rule="evenodd"/></g><g clip-path="url(#91983d0aba)"><path fill="#ffffff" d="M 36.015625 32.488281 C 43.714844 29.914062 51.378906 28.808594 58.300781 29.015625 C 53.992188 29.550781 49.53125 30.554688 45.0625 32.050781 C 31.484375 36.59375 20.964844 44.648438 16 53.242188 L 8.722656 50.964844 C 14.191406 43.417969 23.882812 36.550781 36.015625 32.488281 Z M 36.015625 32.488281 " fill-opacity="1" fill-rule="evenodd"/></g></svg>