<svg xmlns="http://www.w3.org/2000/svg" xmlns:xlink="http://www.w3.org/1999/xlink" width="160" zoomAndPan="magnify" viewBox="0 0 120 60" height="80" preserveAspectRatio="xMidYMid meet" version="1.0"><defs><g/><clipPath id="5fe71c7fba"><path d="M 0 1.535156 L 43 1.535156 L 43 29 L 0 29 Z M 0 1.535156 " clip-rule="nonzero"/></clipPath><clipPath id="d67164e457"><path d="M 5 19 L 45 19 L 45 38.285156 L 5 38.285156 Z M 5 19 " clip-rule="nonzero"/></clipPath></defs><rect x="-12" width="144" fill="#ffffff" y="-6" height="72" fill-opacity="1"/><rect x="-12" width="144" fill="#ffffff" y="-6" height="72" fill-opacity="1"/><g clip-path="url(#5fe71c7fba)"><path fill="#16539b" d="M 21.65625 1.535156 L 26.710938 5.570312 L 26.710938 3.394531 L 32.03125 3.394531 L 32.03125 9.816406 L 42.777344 18.398438 C 41.625 18.328125 40.457031 18.292969 39.28125 18.292969 C 38.5625 18.292969 37.84375 18.304688 37.132812 18.332031 L 21.65625 5.914062 L 9.773438 15.402344 L 11.378906 15.402344 L 11.378906 21.828125 C 16.699219 18.886719 27.117188 17.304688 34.367188 18.5 C 24.21875 19.359375 15.050781 22.839844 7.957031 28.082031 L 7.957031 18.824219 L 0.00390625 18.824219 Z M 21.65625 1.535156 " fill-opacity="1" fill-rule="evenodd"/></g><g clip-path="url(#d67164e457)"><path fill="#8cad2a" d="M 27.347656 22.039062 C 33.480469 19.988281 39.585938 19.109375 45.101562 19.273438 C 41.667969 19.699219 38.117188 20.5 34.554688 21.691406 C 23.734375 25.3125 15.355469 31.730469 11.398438 38.578125 L 5.597656 36.761719 C 9.957031 30.75 17.679688 25.277344 27.347656 22.039062 Z M 27.347656 22.039062 " fill-opacity="1" fill-rule="evenodd"/></g><g fill="#16539b" fill-opacity="1"><g transform="translate(25.162741, 39.570265)"><g><path d="M 5.140625 0.21875 C 4.097656 0.21875 3.097656 0.0820312 2.140625 -0.1875 C 1.191406 -0.46875 0.425781 -0.816406 -0.15625 -1.234375 L 1.09375 -3.59375 C 1.695312 -3.15625 2.375 -2.816406 3.125 -2.578125 C 3.875 -2.335938 4.644531 -2.21875 5.4375 -2.21875 C 6.28125 -2.21875 6.945312 -2.351562 7.4375 -2.625 C 7.925781 -2.90625 8.171875 -3.285156 8.171875 -3.765625 C 8.171875 -4.148438 7.972656 -4.445312 7.578125 -4.65625 C 7.191406 -4.863281 6.570312 -5.085938 5.71875 -5.328125 C 4.863281 -5.578125 4.164062 -5.816406 3.625 -6.046875 C 3.09375 -6.273438 2.628906 -6.617188 2.234375 -7.078125 C 1.835938 -7.546875 1.640625 -8.164062 1.640625 -8.9375 C 1.640625 -9.820312 1.882812 -10.601562 2.375 -11.28125 C 2.875 -11.957031 3.578125 -12.476562 4.484375 -12.84375 C 5.390625 -13.207031 6.445312 -13.390625 7.65625 -13.390625 C 8.550781 -13.390625 9.390625 -13.289062 10.171875 -13.09375 C 10.960938 -12.90625 11.640625 -12.628906 12.203125 -12.265625 L 11.0625 -9.9375 C 10.570312 -10.269531 10.019531 -10.519531 9.40625 -10.6875 C 8.789062 -10.863281 8.148438 -10.953125 7.484375 -10.953125 C 6.617188 -10.953125 5.9375 -10.800781 5.4375 -10.5 C 4.9375 -10.195312 4.6875 -9.804688 4.6875 -9.328125 C 4.6875 -9.035156 4.789062 -8.789062 5 -8.59375 C 5.21875 -8.40625 5.488281 -8.25 5.8125 -8.125 C 6.132812 -8.007812 6.59375 -7.875 7.1875 -7.71875 C 8.03125 -7.488281 8.71875 -7.253906 9.25 -7.015625 C 9.789062 -6.785156 10.253906 -6.445312 10.640625 -6 C 11.023438 -5.5625 11.21875 -4.976562 11.21875 -4.25 C 11.21875 -3.34375 10.960938 -2.554688 10.453125 -1.890625 C 9.953125 -1.222656 9.242188 -0.703125 8.328125 -0.328125 C 7.410156 0.0351562 6.347656 0.21875 5.140625 0.21875 Z M 5.140625 0.21875 "/></g></g></g><g fill="#16539b" fill-opacity="1"><g transform="translate(36.725118, 39.570265)"><g><path d="M 7.46875 0.21875 C 6.15625 0.21875 5.003906 -0.015625 4.015625 -0.484375 C 3.035156 -0.960938 2.28125 -1.632812 1.75 -2.5 C 1.21875 -3.363281 0.953125 -4.363281 0.953125 -5.5 C 0.953125 -6.988281 1.296875 -8.332031 1.984375 -9.53125 C 2.671875 -10.726562 3.632812 -11.671875 4.875 -12.359375 C 6.113281 -13.046875 7.535156 -13.390625 9.140625 -13.390625 C 10.316406 -13.390625 11.359375 -13.1875 12.265625 -12.78125 C 13.171875 -12.382812 13.851562 -11.8125 14.3125 -11.0625 L 12.109375 -9.25 C 11.410156 -10.28125 10.351562 -10.796875 8.9375 -10.796875 C 7.96875 -10.796875 7.113281 -10.566406 6.375 -10.109375 C 5.632812 -9.660156 5.0625 -9.046875 4.65625 -8.265625 C 4.25 -7.492188 4.046875 -6.632812 4.046875 -5.6875 C 4.046875 -4.664062 4.367188 -3.859375 5.015625 -3.265625 C 5.660156 -2.671875 6.566406 -2.375 7.734375 -2.375 C 9.117188 -2.375 10.285156 -2.878906 11.234375 -3.890625 L 13.03125 -2.046875 C 11.726562 -0.535156 9.875 0.21875 7.46875 0.21875 Z M 7.46875 0.21875 "/></g></g></g><g fill="#16539b" fill-opacity="1"><g transform="translate(50.073583, 39.570265)"><g><path d="M 7.375 0.21875 C 6.0625 0.21875 4.921875 -0.015625 3.953125 -0.484375 C 2.984375 -0.960938 2.238281 -1.632812 1.71875 -2.5 C 1.207031 -3.363281 0.953125 -4.363281 0.953125 -5.5 C 0.953125 -6.988281 1.296875 -8.332031 1.984375 -9.53125 C 2.671875 -10.726562 3.628906 -11.671875 4.859375 -12.359375 C 6.097656 -13.046875 7.515625 -13.390625 9.109375 -13.390625 C 10.421875 -13.390625 11.5625 -13.148438 12.53125 -12.671875 C 13.5 -12.203125 14.238281 -11.535156 14.75 -10.671875 C 15.257812 -9.804688 15.515625 -8.804688 15.515625 -7.671875 C 15.515625 -6.179688 15.171875 -4.835938 14.484375 -3.640625 C 13.804688 -2.441406 12.847656 -1.5 11.609375 -0.8125 C 10.378906 -0.125 8.96875 0.21875 7.375 0.21875 Z M 7.640625 -2.375 C 8.609375 -2.375 9.453125 -2.601562 10.171875 -3.0625 C 10.898438 -3.53125 11.457031 -4.148438 11.84375 -4.921875 C 12.238281 -5.703125 12.4375 -6.5625 12.4375 -7.5 C 12.4375 -8.507812 12.117188 -9.3125 11.484375 -9.90625 C 10.859375 -10.5 9.976562 -10.796875 8.84375 -10.796875 C 7.875 -10.796875 7.023438 -10.5625 6.296875 -10.09375 C 5.578125 -9.632812 5.019531 -9.015625 4.625 -8.234375 C 4.238281 -7.460938 4.046875 -6.601562 4.046875 -5.65625 C 4.046875 -4.65625 4.359375 -3.859375 4.984375 -3.265625 C 5.609375 -2.671875 6.492188 -2.375 7.640625 -2.375 Z M 7.640625 -2.375 "/></g></g></g><g fill="#16539b" fill-opacity="1"><g transform="translate(65.508947, 39.570265)"><g><path d="M 6.75 0.21875 C 5.09375 0.21875 3.796875 -0.1875 2.859375 -1 C 1.921875 -1.820312 1.453125 -2.953125 1.453125 -4.390625 C 1.453125 -4.796875 1.5 -5.265625 1.59375 -5.796875 L 3.0625 -13.171875 L 6.140625 -13.171875 L 4.671875 -5.84375 C 4.585938 -5.4375 4.546875 -5.066406 4.546875 -4.734375 C 4.546875 -3.953125 4.757812 -3.363281 5.1875 -2.96875 C 5.625 -2.570312 6.257812 -2.375 7.09375 -2.375 C 8.019531 -2.375 8.757812 -2.648438 9.3125 -3.203125 C 9.863281 -3.753906 10.265625 -4.632812 10.515625 -5.84375 L 11.984375 -13.171875 L 14.96875 -13.171875 L 13.484375 -5.65625 C 12.679688 -1.738281 10.4375 0.21875 6.75 0.21875 Z M 6.75 0.21875 "/></g></g></g><g fill="#16539b" fill-opacity="1"><g transform="translate(79.891463, 39.570265)"><g><path d="M 5.40625 -10.6875 L 1.1875 -10.6875 L 1.6875 -13.171875 L 13.171875 -13.171875 L 12.65625 -10.6875 L 8.46875 -10.6875 L 6.328125 0 L 3.265625 0 Z M 5.40625 -10.6875 "/></g></g></g><g fill="#8cad2a" fill-opacity="0.4"><g transform="translate(0.75, 56.995565)"><g><path d="M 8.234375 -12.765625 C 9.828125 -12.765625 11.054688 -12.414062 11.921875 -11.71875 C 12.796875 -11.019531 13.234375 -10.039062 13.234375 -8.78125 C 13.234375 -7.71875 12.976562 -6.785156 12.46875 -5.984375 C 11.96875 -5.191406 11.253906 -4.582031 10.328125 -4.15625 C 9.398438 -3.726562 8.300781 -3.515625 7.03125 -3.515625 L 4.1875 -3.515625 L 3.5 0 L 0.53125 0 L 3.078125 -12.765625 Z M 7.171875 -5.921875 C 8.148438 -5.921875 8.90625 -6.144531 9.4375 -6.59375 C 9.976562 -7.050781 10.25 -7.695312 10.25 -8.53125 C 10.25 -9.144531 10.046875 -9.601562 9.640625 -9.90625 C 9.234375 -10.207031 8.644531 -10.359375 7.875 -10.359375 L 5.5625 -10.359375 L 4.671875 -5.921875 Z M 7.171875 -5.921875 "/></g></g></g><g fill="#8cad2a" fill-opacity="0.4"><g transform="translate(13.671456, 56.995565)"><g><path d="M 13.28125 -8.8125 C 13.28125 -7.613281 12.957031 -6.585938 12.3125 -5.734375 C 11.664062 -4.890625 10.769531 -4.289062 9.625 -3.9375 L 11.859375 0 L 8.734375 0 L 6.734375 -3.578125 L 4.21875 -3.578125 L 3.5 0 L 0.53125 0 L 3.078125 -12.765625 L 8.28125 -12.765625 C 9.863281 -12.765625 11.09375 -12.414062 11.96875 -11.71875 C 12.84375 -11.03125 13.28125 -10.0625 13.28125 -8.8125 Z M 7.1875 -5.921875 C 8.164062 -5.921875 8.925781 -6.144531 9.46875 -6.59375 C 10.007812 -7.050781 10.28125 -7.695312 10.28125 -8.53125 C 10.28125 -9.144531 10.070312 -9.601562 9.65625 -9.90625 C 9.25 -10.207031 8.660156 -10.359375 7.890625 -10.359375 L 5.5625 -10.359375 L 4.671875 -5.921875 Z M 7.1875 -5.921875 "/></g></g></g><g fill="#8cad2a" fill-opacity="0.4"><g transform="translate(26.647585, 56.995565)"><g><path d="M 7.140625 0.21875 C 5.867188 0.21875 4.765625 -0.0078125 3.828125 -0.46875 C 2.890625 -0.9375 2.171875 -1.585938 1.671875 -2.421875 C 1.179688 -3.265625 0.9375 -4.234375 0.9375 -5.328125 C 0.9375 -6.773438 1.265625 -8.078125 1.921875 -9.234375 C 2.585938 -10.398438 3.519531 -11.316406 4.71875 -11.984375 C 5.914062 -12.648438 7.285156 -12.984375 8.828125 -12.984375 C 10.097656 -12.984375 11.203125 -12.75 12.140625 -12.28125 C 13.078125 -11.820312 13.796875 -11.171875 14.296875 -10.328125 C 14.796875 -9.492188 15.046875 -8.53125 15.046875 -7.4375 C 15.046875 -5.988281 14.710938 -4.679688 14.046875 -3.515625 C 13.390625 -2.359375 12.460938 -1.445312 11.265625 -0.78125 C 10.066406 -0.113281 8.691406 0.21875 7.140625 0.21875 Z M 7.40625 -2.296875 C 8.34375 -2.296875 9.160156 -2.519531 9.859375 -2.96875 C 10.566406 -3.414062 11.109375 -4.015625 11.484375 -4.765625 C 11.859375 -5.523438 12.046875 -6.363281 12.046875 -7.28125 C 12.046875 -8.25 11.742188 -9.019531 11.140625 -9.59375 C 10.535156 -10.175781 9.675781 -10.46875 8.5625 -10.46875 C 7.632812 -10.46875 6.816406 -10.242188 6.109375 -9.796875 C 5.398438 -9.347656 4.859375 -8.742188 4.484375 -7.984375 C 4.109375 -7.234375 3.921875 -6.398438 3.921875 -5.484375 C 3.921875 -4.515625 4.222656 -3.738281 4.828125 -3.15625 C 5.441406 -2.582031 6.300781 -2.296875 7.40625 -2.296875 Z M 7.40625 -2.296875 "/></g></g></g><g fill="#8cad2a" fill-opacity="0.4"><g transform="translate(41.610254, 56.995565)"><g><path d="M 8.234375 -12.765625 C 9.828125 -12.765625 11.054688 -12.414062 11.921875 -11.71875 C 12.796875 -11.019531 13.234375 -10.039062 13.234375 -8.78125 C 13.234375 -7.71875 12.976562 -6.785156 12.46875 -5.984375 C 11.96875 -5.191406 11.253906 -4.582031 10.328125 -4.15625 C 9.398438 -3.726562 8.300781 -3.515625 7.03125 -3.515625 L 4.1875 -3.515625 L 3.5 0 L 0.53125 0 L 3.078125 -12.765625 Z M 7.171875 -5.921875 C 8.148438 -5.921875 8.90625 -6.144531 9.4375 -6.59375 C 9.976562 -7.050781 10.25 -7.695312 10.25 -8.53125 C 10.25 -9.144531 10.046875 -9.601562 9.640625 -9.90625 C 9.234375 -10.207031 8.644531 -10.359375 7.875 -10.359375 L 5.5625 -10.359375 L 4.671875 -5.921875 Z M 7.171875 -5.921875 "/></g></g></g><g fill="#8cad2a" fill-opacity="0.4"><g transform="translate(54.531711, 56.995565)"><g><path d="M 5.546875 -10.390625 L 5 -7.625 L 10.921875 -7.625 L 10.46875 -5.328125 L 4.515625 -5.328125 L 3.9375 -2.375 L 10.90625 -2.375 L 10.40625 0 L 0.53125 0 L 3.078125 -12.765625 L 12.734375 -12.765625 L 12.234375 -10.390625 Z M 5.546875 -10.390625 "/></g></g></g><g fill="#8cad2a" fill-opacity="0.4"><g transform="translate(66.341427, 56.995565)"><g><path d="M 13.28125 -8.8125 C 13.28125 -7.613281 12.957031 -6.585938 12.3125 -5.734375 C 11.664062 -4.890625 10.769531 -4.289062 9.625 -3.9375 L 11.859375 0 L 8.734375 0 L 6.734375 -3.578125 L 4.21875 -3.578125 L 3.5 0 L 0.53125 0 L 3.078125 -12.765625 L 8.28125 -12.765625 C 9.863281 -12.765625 11.09375 -12.414062 11.96875 -11.71875 C 12.84375 -11.03125 13.28125 -10.0625 13.28125 -8.8125 Z M 7.1875 -5.921875 C 8.164062 -5.921875 8.925781 -6.144531 9.46875 -6.59375 C 10.007812 -7.050781 10.28125 -7.695312 10.28125 -8.53125 C 10.28125 -9.144531 10.070312 -9.601562 9.65625 -9.90625 C 9.25 -10.207031 8.660156 -10.359375 7.890625 -10.359375 L 5.5625 -10.359375 L 4.671875 -5.921875 Z M 7.1875 -5.921875 "/></g></g></g><g fill="#8cad2a" fill-opacity="0.4"><g transform="translate(79.317558, 56.995565)"><g><path d="M 5.234375 -10.359375 L 1.15625 -10.359375 L 1.640625 -12.765625 L 12.765625 -12.765625 L 12.265625 -10.359375 L 8.203125 -10.359375 L 6.125 0 L 3.171875 0 Z M 5.234375 -10.359375 "/></g></g></g><g fill="#8cad2a" fill-opacity="0.4"><g transform="translate(90.161344, 56.995565)"><g><path d="M 3.078125 -12.765625 L 6.046875 -12.765625 L 3.5 0 L 0.53125 0 Z M 3.078125 -12.765625 "/></g></g></g><g fill="#8cad2a" fill-opacity="0.4"><g transform="translate(95.719834, 56.995565)"><g><path d="M 5.546875 -10.390625 L 5 -7.625 L 10.921875 -7.625 L 10.46875 -5.328125 L 4.515625 -5.328125 L 3.9375 -2.375 L 10.90625 -2.375 L 10.40625 0 L 0.53125 0 L 3.078125 -12.765625 L 12.734375 -12.765625 L 12.234375 -10.390625 Z M 5.546875 -10.390625 "/></g></g></g><g fill="#8cad2a" fill-opacity="0.4"><g transform="translate(107.529554, 56.995565)"><g><path d="M 4.984375 0.21875 C 3.972656 0.21875 3.003906 0.0859375 2.078125 -0.171875 C 1.148438 -0.441406 0.410156 -0.785156 -0.140625 -1.203125 L 1.0625 -3.484375 C 1.644531 -3.054688 2.300781 -2.726562 3.03125 -2.5 C 3.757812 -2.269531 4.503906 -2.15625 5.265625 -2.15625 C 6.078125 -2.15625 6.71875 -2.285156 7.1875 -2.546875 C 7.664062 -2.816406 7.90625 -3.179688 7.90625 -3.640625 C 7.90625 -4.023438 7.71875 -4.316406 7.34375 -4.515625 C 6.96875 -4.710938 6.367188 -4.925781 5.546875 -5.15625 C 4.710938 -5.40625 4.035156 -5.640625 3.515625 -5.859375 C 2.992188 -6.085938 2.539062 -6.425781 2.15625 -6.875 C 1.78125 -7.320312 1.59375 -7.914062 1.59375 -8.65625 C 1.59375 -9.519531 1.832031 -10.28125 2.3125 -10.9375 C 2.789062 -11.59375 3.46875 -12.097656 4.34375 -12.453125 C 5.226562 -12.804688 6.253906 -12.984375 7.421875 -12.984375 C 8.285156 -12.984375 9.097656 -12.890625 9.859375 -12.703125 C 10.628906 -12.515625 11.285156 -12.242188 11.828125 -11.890625 L 10.71875 -9.625 C 10.25 -9.957031 9.710938 -10.203125 9.109375 -10.359375 C 8.515625 -10.523438 7.894531 -10.609375 7.25 -10.609375 C 6.414062 -10.609375 5.753906 -10.460938 5.265625 -10.171875 C 4.785156 -9.878906 4.546875 -9.503906 4.546875 -9.046875 C 4.546875 -8.765625 4.644531 -8.53125 4.84375 -8.34375 C 5.050781 -8.15625 5.3125 -8.003906 5.625 -7.890625 C 5.945312 -7.773438 6.394531 -7.632812 6.96875 -7.46875 C 7.78125 -7.25 8.445312 -7.023438 8.96875 -6.796875 C 9.488281 -6.578125 9.9375 -6.25 10.3125 -5.8125 C 10.6875 -5.382812 10.875 -4.820312 10.875 -4.125 C 10.875 -3.25 10.628906 -2.484375 10.140625 -1.828125 C 9.648438 -1.179688 8.960938 -0.675781 8.078125 -0.3125 C 7.191406 0.0390625 6.160156 0.21875 4.984375 0.21875 Z M 4.984375 0.21875 "/></g></g></g><g fill="#8cad2a" fill-opacity="1"><g transform="translate(0.75, 56.995565)"><g><path d="M 8.234375 -12.765625 C 9.828125 -12.765625 11.054688 -12.414062 11.921875 -11.71875 C 12.796875 -11.019531 13.234375 -10.039062 13.234375 -8.78125 C 13.234375 -7.71875 12.976562 -6.785156 12.46875 -5.984375 C 11.96875 -5.191406 11.253906 -4.582031 10.328125 -4.15625 C 9.398438 -3.726562 8.300781 -3.515625 7.03125 -3.515625 L 4.1875 -3.515625 L 3.5 0 L 0.53125 0 L 3.078125 -12.765625 Z M 7.171875 -5.921875 C 8.148438 -5.921875 8.90625 -6.144531 9.4375 -6.59375 C 9.976562 -7.050781 10.25 -7.695312 10.25 -8.53125 C 10.25 -9.144531 10.046875 -9.601562 9.640625 -9.90625 C 9.234375 -10.207031 8.644531 -10.359375 7.875 -10.359375 L 5.5625 -10.359375 L 4.671875 -5.921875 Z M 7.171875 -5.921875 "/></g></g></g><g fill="#8cad2a" fill-opacity="1"><g transform="translate(13.671456, 56.995565)"><g><path d="M 13.28125 -8.8125 C 13.28125 -7.613281 12.957031 -6.585938 12.3125 -5.734375 C 11.664062 -4.890625 10.769531 -4.289062 9.625 -3.9375 L 11.859375 0 L 8.734375 0 L 6.734375 -3.578125 L 4.21875 -3.578125 L 3.5 0 L 0.53125 0 L 3.078125 -12.765625 L 8.28125 -12.765625 C 9.863281 -12.765625 11.09375 -12.414062 11.96875 -11.71875 C 12.84375 -11.03125 13.28125 -10.0625 13.28125 -8.8125 Z M 7.1875 -5.921875 C 8.164062 -5.921875 8.925781 -6.144531 9.46875 -6.59375 C 10.007812 -7.050781 10.28125 -7.695312 10.28125 -8.53125 C 10.28125 -9.144531 10.070312 -9.601562 9.65625 -9.90625 C 9.25 -10.207031 8.660156 -10.359375 7.890625 -10.359375 L 5.5625 -10.359375 L 4.671875 -5.921875 Z M 7.1875 -5.921875 "/></g></g></g><g fill="#8cad2a" fill-opacity="1"><g transform="translate(26.647585, 56.995565)"><g><path d="M 7.140625 0.21875 C 5.867188 0.21875 4.765625 -0.0078125 3.828125 -0.46875 C 2.890625 -0.9375 2.171875 -1.585938 1.671875 -2.421875 C 1.179688 -3.265625 0.9375 -4.234375 0.9375 -5.328125 C 0.9375 -6.773438 1.265625 -8.078125 1.921875 -9.234375 C 2.585938 -10.398438 3.519531 -11.316406 4.71875 -11.984375 C 5.914062 -12.648438 7.285156 -12.984375 8.828125 -12.984375 C 10.097656 -12.984375 11.203125 -12.75 12.140625 -12.28125 C 13.078125 -11.820312 13.796875 -11.171875 14.296875 -10.328125 C 14.796875 -9.492188 15.046875 -8.53125 15.046875 -7.4375 C 15.046875 -5.988281 14.710938 -4.679688 14.046875 -3.515625 C 13.390625 -2.359375 12.460938 -1.445312 11.265625 -0.78125 C 10.066406 -0.113281 8.691406 0.21875 7.140625 0.21875 Z M 7.40625 -2.296875 C 8.34375 -2.296875 9.160156 -2.519531 9.859375 -2.96875 C 10.566406 -3.414062 11.109375 -4.015625 11.484375 -4.765625 C 11.859375 -5.523438 12.046875 -6.363281 12.046875 -7.28125 C 12.046875 -8.25 11.742188 -9.019531 11.140625 -9.59375 C 10.535156 -10.175781 9.675781 -10.46875 8.5625 -10.46875 C 7.632812 -10.46875 6.816406 -10.242188 6.109375 -9.796875 C 5.398438 -9.347656 4.859375 -8.742188 4.484375 -7.984375 C 4.109375 -7.234375 3.921875 -6.398438 3.921875 -5.484375 C 3.921875 -4.515625 4.222656 -3.738281 4.828125 -3.15625 C 5.441406 -2.582031 6.300781 -2.296875 7.40625 -2.296875 Z M 7.40625 -2.296875 "/></g></g></g><g fill="#8cad2a" fill-opacity="1"><g transform="translate(41.610254, 56.995565)"><g><path d="M 8.234375 -12.765625 C 9.828125 -12.765625 11.054688 -12.414062 11.921875 -11.71875 C 12.796875 -11.019531 13.234375 -10.039062 13.234375 -8.78125 C 13.234375 -7.71875 12.976562 -6.785156 12.46875 -5.984375 C 11.96875 -5.191406 11.253906 -4.582031 10.328125 -4.15625 C 9.398438 -3.726562 8.300781 -3.515625 7.03125 -3.515625 L 4.1875 -3.515625 L 3.5 0 L 0.53125 0 L 3.078125 -12.765625 Z M 7.171875 -5.921875 C 8.148438 -5.921875 8.90625 -6.144531 9.4375 -6.59375 C 9.976562 -7.050781 10.25 -7.695312 10.25 -8.53125 C 10.25 -9.144531 10.046875 -9.601562 9.640625 -9.90625 C 9.234375 -10.207031 8.644531 -10.359375 7.875 -10.359375 L 5.5625 -10.359375 L 4.671875 -5.921875 Z M 7.171875 -5.921875 "/></g></g></g><g fill="#8cad2a" fill-opacity="1"><g transform="translate(54.531711, 56.995565)"><g><path d="M 5.546875 -10.390625 L 5 -7.625 L 10.921875 -7.625 L 10.46875 -5.328125 L 4.515625 -5.328125 L 3.9375 -2.375 L 10.90625 -2.375 L 10.40625 0 L 0.53125 0 L 3.078125 -12.765625 L 12.734375 -12.765625 L 12.234375 -10.390625 Z M 5.546875 -10.390625 "/></g></g></g><g fill="#8cad2a" fill-opacity="1"><g transform="translate(66.341427, 56.995565)"><g><path d="M 13.28125 -8.8125 C 13.28125 -7.613281 12.957031 -6.585938 12.3125 -5.734375 C 11.664062 -4.890625 10.769531 -4.289062 9.625 -3.9375 L 11.859375 0 L 8.734375 0 L 6.734375 -3.578125 L 4.21875 -3.578125 L 3.5 0 L 0.53125 0 L 3.078125 -12.765625 L 8.28125 -12.765625 C 9.863281 -12.765625 11.09375 -12.414062 11.96875 -11.71875 C 12.84375 -11.03125 13.28125 -10.0625 13.28125 -8.8125 Z M 7.1875 -5.921875 C 8.164062 -5.921875 8.925781 -6.144531 9.46875 -6.59375 C 10.007812 -7.050781 10.28125 -7.695312 10.28125 -8.53125 C 10.28125 -9.144531 10.070312 -9.601562 9.65625 -9.90625 C 9.25 -10.207031 8.660156 -10.359375 7.890625 -10.359375 L 5.5625 -10.359375 L 4.671875 -5.921875 Z M 7.1875 -5.921875 "/></g></g></g><g fill="#8cad2a" fill-opacity="1"><g transform="translate(79.317558, 56.995565)"><g><path d="M 5.234375 -10.359375 L 1.15625 -10.359375 L 1.640625 -12.765625 L 12.765625 -12.765625 L 12.265625 -10.359375 L 8.203125 -10.359375 L 6.125 0 L 3.171875 0 Z M 5.234375 -10.359375 "/></g></g></g><g fill="#8cad2a" fill-opacity="1"><g transform="translate(90.161344, 56.995565)"><g><path d="M 3.078125 -12.765625 L 6.046875 -12.765625 L 3.5 0 L 0.53125 0 Z M 3.078125 -12.765625 "/></g></g></g><g fill="#8cad2a" fill-opacity="1"><g transform="translate(95.719834, 56.995565)"><g><path d="M 5.546875 -10.390625 L 5 -7.625 L 10.921875 -7.625 L 10.46875 -5.328125 L 4.515625 -5.328125 L 3.9375 -2.375 L 10.90625 -2.375 L 10.40625 0 L 0.53125 0 L 3.078125 -12.765625 L 12.734375 -12.765625 L 12.234375 -10.390625 Z M 5.546875 -10.390625 "/></g></g></g><g fill="#8cad2a" fill-opacity="1"><g transform="translate(107.529554, 56.995565)"><g><path d="M 4.984375 0.21875 C 3.972656 0.21875 3.003906 0.0859375 2.078125 -0.171875 C 1.148438 -0.441406 0.410156 -0.785156 -0.140625 -1.203125 L 1.0625 -3.484375 C 1.644531 -3.054688 2.300781 -2.726562 3.03125 -2.5 C 3.757812 -2.269531 4.503906 -2.15625 5.265625 -2.15625 C 6.078125 -2.15625 6.71875 -2.285156 7.1875 -2.546875 C 7.664062 -2.816406 7.90625 -3.179688 7.90625 -3.640625 C 7.90625 -4.023438 7.71875 -4.316406 7.34375 -4.515625 C 6.96875 -4.710938 6.367188 -4.925781 5.546875 -5.15625 C 4.710938 -5.40625 4.035156 -5.640625 3.515625 -5.859375 C 2.992188 -6.085938 2.539062 -6.425781 2.15625 -6.875 C 1.78125 -7.320312 1.59375 -7.914062 1.59375 -8.65625 C 1.59375 -9.519531 1.832031 -10.28125 2.3125 -10.9375 C 2.789062 -11.59375 3.46875 -12.097656 4.34375 -12.453125 C 5.226562 -12.804688 6.253906 -12.984375 7.421875 -12.984375 C 8.285156 -12.984375 9.097656 -12.890625 9.859375 -12.703125 C 10.628906 -12.515625 11.285156 -12.242188 11.828125 -11.890625 L 10.71875 -9.625 C 10.25 -9.957031 9.710938 -10.203125 9.109375 -10.359375 C 8.515625 -10.523438 7.894531 -10.609375 7.25 -10.609375 C 6.414062 -10.609375 5.753906 -10.460938 5.265625 -10.171875 C 4.785156 -9.878906 4.546875 -9.503906 4.546875 -9.046875 C 4.546875 -8.765625 4.644531 -8.53125 4.84375 -8.34375 C 5.050781 -8.15625 5.3125 -8.003906 5.625 -7.890625 C 5.945312 -7.773438 6.394531 -7.632812 6.96875 -7.46875 C 7.78125 -7.25 8.445312 -7.023438 8.96875 -6.796875 C 9.488281 -6.578125 9.9375 -6.25 10.3125 -5.8125 C 10.6875 -5.382812 10.875 -4.820312 10.875 -4.125 C 10.875 -3.25 10.628906 -2.484375 10.140625 -1.828125 C 9.648438 -1.179688 8.960938 -0.675781 8.078125 -0.3125 C 7.191406 0.0390625 6.160156 0.21875 4.984375 0.21875 Z M 4.984375 0.21875 "/></g></g></g></svg>