<svg xmlns="http://www.w3.org/2000/svg" xmlns:xlink="http://www.w3.org/1999/xlink" width="80" zoomAndPan="magnify" viewBox="0 0 60 60" height="80" preserveAspectRatio="xMidYMid meet" version="1.0"><defs><g/><clipPath id="655acb772c"><path d="M 0.8125 5.390625 L 57 5.390625 L 57 41 L 0.8125 41 Z M 0.8125 5.390625 " clip-rule="nonzero"/></clipPath></defs><g fill="#000000" fill-opacity="1"><g transform="translate(37.516405, 12.075001)"><g><path d="M 0.375 0 L 0.375 -3.015625 L 0.6875 -3.015625 L 0.6875 -1.84375 L 0.734375 -1.84375 C 0.890625 -2.082031 1.113281 -2.203125 1.40625 -2.203125 C 1.664062 -2.203125 1.851562 -2.132812 1.96875 -2 C 2.082031 -1.863281 2.140625 -1.660156 2.140625 -1.390625 L 2.140625 0 L 1.828125 0 L 1.828125 -1.375 C 1.828125 -1.507812 1.804688 -1.613281 1.765625 -1.6875 C 1.734375 -1.769531 1.679688 -1.828125 1.609375 -1.859375 C 1.546875 -1.898438 1.457031 -1.921875 1.34375 -1.921875 C 1.144531 -1.921875 0.984375 -1.859375 0.859375 -1.734375 C 0.742188 -1.609375 0.6875 -1.398438 0.6875 -1.109375 L 0.6875 0 Z M 0.375 0 "/></g></g></g><g fill="#000000" fill-opacity="1"><g transform="translate(39.994451, 12.075001)"><g><path d="M 0.53125 -2.578125 C 0.46875 -2.578125 0.414062 -2.597656 0.375 -2.640625 C 0.332031 -2.679688 0.3125 -2.734375 0.3125 -2.796875 C 0.3125 -2.859375 0.332031 -2.910156 0.375 -2.953125 C 0.414062 -2.992188 0.46875 -3.015625 0.53125 -3.015625 C 0.601562 -3.015625 0.660156 -2.992188 0.703125 -2.953125 C 0.742188 -2.910156 0.765625 -2.859375 0.765625 -2.796875 C 0.765625 -2.734375 0.742188 -2.679688 0.703125 -2.640625 C 0.660156 -2.597656 0.601562 -2.578125 0.53125 -2.578125 Z M 0.375 0 L 0.375 -2.15625 L 0.6875 -2.15625 L 0.6875 0 Z M 0.375 0 "/></g></g></g><g clip-path="url(#655acb772c)"><path fill="#16539b" d="M 29.226562 5.390625 L 35.859375 10.683594 L 35.859375 7.832031 L 42.835938 7.832031 L 42.835938 16.257812 L 56.933594 27.515625 C 55.421875 27.421875 53.890625 27.378906 52.347656 27.378906 C 51.402344 27.378906 50.460938 27.394531 49.527344 27.429688 L 29.226562 11.136719 L 13.632812 23.585938 L 15.742188 23.585938 L 15.742188 32.019531 C 22.722656 28.15625 36.390625 26.078125 45.898438 27.648438 C 32.585938 28.773438 20.558594 33.34375 11.253906 40.21875 L 11.253906 28.074219 L 0.816406 28.074219 Z M 29.226562 5.390625 " fill-opacity="1" fill-rule="evenodd"/></g><path fill="#8cad2a" d="M 36.691406 32.296875 C 44.738281 29.601562 52.75 28.445312 59.984375 28.664062 C 55.480469 29.226562 50.816406 30.269531 46.144531 31.835938 C 31.953125 36.585938 20.957031 45.007812 15.765625 53.988281 L 8.160156 51.609375 C 13.875 43.71875 24.007812 36.539062 36.691406 32.296875 Z M 36.691406 32.296875 " fill-opacity="1" fill-rule="evenodd"/></svg>