<svg xmlns="http://www.w3.org/2000/svg" xmlns:xlink="http://www.w3.org/1999/xlink" width="260" zoomAndPan="magnify" viewBox="0 0 194.87999 60" height="80" preserveAspectRatio="xMidYMid meet" version="1.0"><defs><g/><clipPath id="acfad47c8a"><path d="M 0 3.367188 L 62 3.367188 L 62 42 L 0 42 Z M 0 3.367188 " clip-rule="nonzero"/></clipPath><clipPath id="372e434d1b"><path d="M 8 28 L 65 28 L 65 56.585938 L 8 56.585938 Z M 8 28 " clip-rule="nonzero"/></clipPath><clipPath id="7fa2cb0235"><path d="M 172 6 L 194.761719 6 L 194.761719 32 L 172 32 Z M 172 6 " clip-rule="nonzero"/></clipPath></defs><g clip-path="url(#acfad47c8a)"><path fill="#8cad2a" d="M 31.136719 3.367188 L 38.402344 9.171875 L 38.402344 6.046875 L 46.050781 6.046875 L 46.050781 15.277344 L 61.5 27.609375 C 59.839844 27.511719 58.164062 27.460938 56.472656 27.460938 C 55.4375 27.460938 54.40625 27.480469 53.378906 27.519531 L 31.136719 9.664062 L 14.050781 23.304688 L 16.363281 23.304688 L 16.363281 32.546875 C 24.007812 28.3125 38.988281 26.039062 49.40625 27.757812 C 34.816406 28.992188 21.640625 34 11.441406 41.53125 L 11.441406 28.226562 L 0.0078125 28.226562 Z M 31.136719 3.367188 " fill-opacity="1" fill-rule="evenodd"/></g><g clip-path="url(#372e434d1b)"><path fill="#16539b" d="M 39.316406 32.847656 C 48.132812 29.898438 56.910156 28.632812 64.839844 28.871094 C 59.90625 29.484375 54.796875 30.632812 49.675781 32.34375 C 34.125 37.550781 22.074219 46.777344 16.386719 56.621094 L 8.050781 54.015625 C 14.316406 45.367188 25.417969 37.5 39.316406 32.847656 Z M 39.316406 32.847656 " fill-opacity="1" fill-rule="evenodd"/></g><g fill="#16539b" fill-opacity="1"><g transform="translate(66.055092, 31.335429)"><g><path d="M 9.765625 0.421875 C 7.785156 0.421875 5.890625 0.160156 4.078125 -0.359375 C 2.265625 -0.878906 0.8125 -1.546875 -0.28125 -2.359375 L 2.078125 -6.828125 C 3.222656 -5.992188 4.507812 -5.347656 5.9375 -4.890625 C 7.363281 -4.441406 8.828125 -4.21875 10.328125 -4.21875 C 11.929688 -4.21875 13.195312 -4.476562 14.125 -5 C 15.050781 -5.53125 15.515625 -6.25 15.515625 -7.15625 C 15.515625 -7.894531 15.144531 -8.457031 14.40625 -8.84375 C 13.664062 -9.238281 12.488281 -9.664062 10.875 -10.125 C 9.25 -10.59375 7.921875 -11.046875 6.890625 -11.484375 C 5.867188 -11.929688 4.984375 -12.59375 4.234375 -13.46875 C 3.484375 -14.351562 3.109375 -15.523438 3.109375 -16.984375 C 3.109375 -18.671875 3.578125 -20.15625 4.515625 -21.4375 C 5.460938 -22.726562 6.800781 -23.71875 8.53125 -24.40625 C 10.257812 -25.101562 12.265625 -25.453125 14.546875 -25.453125 C 16.242188 -25.453125 17.84375 -25.265625 19.34375 -24.890625 C 20.84375 -24.523438 22.128906 -24 23.203125 -23.3125 L 21.015625 -18.875 C 20.085938 -19.519531 19.039062 -20.003906 17.875 -20.328125 C 16.707031 -20.648438 15.492188 -20.8125 14.234375 -20.8125 C 12.585938 -20.8125 11.285156 -20.523438 10.328125 -19.953125 C 9.378906 -19.378906 8.90625 -18.640625 8.90625 -17.734375 C 8.90625 -17.179688 9.109375 -16.71875 9.515625 -16.34375 C 9.921875 -15.976562 10.429688 -15.679688 11.046875 -15.453125 C 11.660156 -15.234375 12.53125 -14.96875 13.65625 -14.65625 C 15.25 -14.226562 16.554688 -13.789062 17.578125 -13.34375 C 18.609375 -12.90625 19.488281 -12.265625 20.21875 -11.421875 C 20.945312 -10.578125 21.3125 -9.460938 21.3125 -8.078125 C 21.3125 -6.359375 20.832031 -4.863281 19.875 -3.59375 C 18.925781 -2.320312 17.582031 -1.332031 15.84375 -0.625 C 14.101562 0.0703125 12.078125 0.421875 9.765625 0.421875 Z M 9.765625 0.421875 "/></g></g></g><g fill="#16539b" fill-opacity="1"><g transform="translate(88.037101, 31.335429)"><g><path d="M 14.1875 0.421875 C 11.6875 0.421875 9.5 -0.0234375 7.625 -0.921875 C 5.757812 -1.828125 4.328125 -3.101562 3.328125 -4.75 C 2.328125 -6.394531 1.828125 -8.289062 1.828125 -10.4375 C 1.828125 -13.269531 2.472656 -15.820312 3.765625 -18.09375 C 5.066406 -20.375 6.894531 -22.171875 9.25 -23.484375 C 11.613281 -24.796875 14.320312 -25.453125 17.375 -25.453125 C 19.613281 -25.453125 21.59375 -25.070312 23.3125 -24.3125 C 25.03125 -23.550781 26.328125 -22.453125 27.203125 -21.015625 L 23.015625 -17.59375 C 21.679688 -19.539062 19.671875 -20.515625 16.984375 -20.515625 C 15.148438 -20.515625 13.53125 -20.085938 12.125 -19.234375 C 10.71875 -18.378906 9.625 -17.210938 8.84375 -15.734375 C 8.070312 -14.253906 7.6875 -12.609375 7.6875 -10.796875 C 7.6875 -8.867188 8.300781 -7.335938 9.53125 -6.203125 C 10.757812 -5.066406 12.476562 -4.5 14.6875 -4.5 C 17.332031 -4.5 19.550781 -5.46875 21.34375 -7.40625 L 24.78125 -3.890625 C 22.300781 -1.015625 18.769531 0.421875 14.1875 0.421875 Z M 14.1875 0.421875 "/></g></g></g><g fill="#16539b" fill-opacity="1"><g transform="translate(113.414747, 31.335429)"><g><path d="M 14.015625 0.421875 C 11.515625 0.421875 9.34375 -0.0234375 7.5 -0.921875 C 5.664062 -1.828125 4.257812 -3.101562 3.28125 -4.75 C 2.3125 -6.394531 1.828125 -8.289062 1.828125 -10.4375 C 1.828125 -13.269531 2.472656 -15.820312 3.765625 -18.09375 C 5.066406 -20.375 6.890625 -22.171875 9.234375 -23.484375 C 11.585938 -24.796875 14.273438 -25.453125 17.296875 -25.453125 C 19.804688 -25.453125 21.976562 -25 23.8125 -24.09375 C 25.644531 -23.1875 27.050781 -21.910156 28.03125 -20.265625 C 29.007812 -18.617188 29.5 -16.726562 29.5 -14.59375 C 29.5 -11.75 28.847656 -9.1875 27.546875 -6.90625 C 26.242188 -4.632812 24.414062 -2.84375 22.0625 -1.53125 C 19.71875 -0.226562 17.035156 0.421875 14.015625 0.421875 Z M 14.515625 -4.5 C 16.347656 -4.5 17.957031 -4.941406 19.34375 -5.828125 C 20.726562 -6.710938 21.785156 -7.890625 22.515625 -9.359375 C 23.253906 -10.835938 23.625 -12.472656 23.625 -14.265625 C 23.625 -16.171875 23.03125 -17.6875 21.84375 -18.8125 C 20.65625 -19.945312 18.972656 -20.515625 16.796875 -20.515625 C 14.960938 -20.515625 13.351562 -20.070312 11.96875 -19.1875 C 10.59375 -18.3125 9.535156 -17.132812 8.796875 -15.65625 C 8.054688 -14.175781 7.6875 -12.546875 7.6875 -10.765625 C 7.6875 -8.859375 8.28125 -7.335938 9.46875 -6.203125 C 10.664062 -5.066406 12.347656 -4.5 14.515625 -4.5 Z M 14.515625 -4.5 "/></g></g></g><g fill="#16539b" fill-opacity="1"><g transform="translate(142.759942, 31.335429)"><g><path d="M 12.828125 0.421875 C 9.679688 0.421875 7.210938 -0.351562 5.421875 -1.90625 C 3.640625 -3.46875 2.75 -5.609375 2.75 -8.328125 C 2.75 -9.117188 2.84375 -10.015625 3.03125 -11.015625 L 5.828125 -25.03125 L 11.65625 -25.03125 L 8.859375 -11.125 C 8.722656 -10.332031 8.65625 -9.628906 8.65625 -9.015625 C 8.65625 -7.503906 9.066406 -6.375 9.890625 -5.625 C 10.710938 -4.875 11.910156 -4.5 13.484375 -4.5 C 15.242188 -4.5 16.644531 -5.023438 17.6875 -6.078125 C 18.738281 -7.128906 19.503906 -8.8125 19.984375 -11.125 L 22.765625 -25.03125 L 28.453125 -25.03125 L 25.625 -10.765625 C 24.101562 -3.304688 19.835938 0.421875 12.828125 0.421875 Z M 12.828125 0.421875 "/></g></g></g><g clip-path="url(#7fa2cb0235)"><g fill="#16539b" fill-opacity="1"><g transform="translate(170.103489, 31.335429)"><g><path d="M 10.265625 -20.3125 L 2.25 -20.3125 L 3.21875 -25.03125 L 25.03125 -25.03125 L 24.0625 -20.3125 L 16.09375 -20.3125 L 12.015625 0 L 6.21875 0 Z M 10.265625 -20.3125 "/></g></g></g></g><g fill="#8cad2a" fill-opacity="0.4"><g transform="translate(41.034219, 54.712267)"><g><path d="M 9.078125 -16.46875 C 10.535156 -16.46875 11.800781 -16.222656 12.875 -15.734375 C 13.957031 -15.253906 14.785156 -14.566406 15.359375 -13.671875 C 15.941406 -12.773438 16.234375 -11.71875 16.234375 -10.5 C 16.234375 -9.289062 15.941406 -8.234375 15.359375 -7.328125 C 14.785156 -6.429688 13.957031 -5.742188 12.875 -5.265625 C 11.800781 -4.785156 10.535156 -4.546875 9.078125 -4.546875 L 5.765625 -4.546875 L 5.765625 0 L 1.953125 0 L 1.953125 -16.46875 Z M 8.875 -7.640625 C 10.019531 -7.640625 10.890625 -7.882812 11.484375 -8.375 C 12.078125 -8.875 12.375 -9.582031 12.375 -10.5 C 12.375 -11.425781 12.078125 -12.132812 11.484375 -12.625 C 10.890625 -13.113281 10.019531 -13.359375 8.875 -13.359375 L 5.765625 -13.359375 L 5.765625 -7.640625 Z M 8.875 -7.640625 "/></g></g></g><g fill="#8cad2a" fill-opacity="0.4"><g transform="translate(57.715704, 54.712267)"><g><path d="M 12.453125 0 L 9.265625 -4.59375 L 5.765625 -4.59375 L 5.765625 0 L 1.953125 0 L 1.953125 -16.46875 L 9.078125 -16.46875 C 10.535156 -16.46875 11.800781 -16.222656 12.875 -15.734375 C 13.957031 -15.253906 14.785156 -14.566406 15.359375 -13.671875 C 15.941406 -12.773438 16.234375 -11.71875 16.234375 -10.5 C 16.234375 -9.269531 15.9375 -8.210938 15.34375 -7.328125 C 14.757812 -6.441406 13.925781 -5.765625 12.84375 -5.296875 L 16.546875 0 Z M 12.375 -10.5 C 12.375 -11.425781 12.078125 -12.132812 11.484375 -12.625 C 10.890625 -13.113281 10.019531 -13.359375 8.875 -13.359375 L 5.765625 -13.359375 L 5.765625 -7.625 L 8.875 -7.625 C 10.019531 -7.625 10.890625 -7.875 11.484375 -8.375 C 12.078125 -8.875 12.375 -9.582031 12.375 -10.5 Z M 12.375 -10.5 "/></g></g></g><g fill="#8cad2a" fill-opacity="0.4"><g transform="translate(74.467779, 54.712267)"><g><path d="M 9.9375 0.28125 C 8.21875 0.28125 6.671875 -0.0820312 5.296875 -0.8125 C 3.929688 -1.550781 2.859375 -2.566406 2.078125 -3.859375 C 1.304688 -5.160156 0.921875 -6.617188 0.921875 -8.234375 C 0.921875 -9.847656 1.304688 -11.300781 2.078125 -12.59375 C 2.859375 -13.894531 3.929688 -14.910156 5.296875 -15.640625 C 6.671875 -16.378906 8.21875 -16.75 9.9375 -16.75 C 11.644531 -16.75 13.179688 -16.378906 14.546875 -15.640625 C 15.910156 -14.910156 16.984375 -13.894531 17.765625 -12.59375 C 18.546875 -11.300781 18.9375 -9.847656 18.9375 -8.234375 C 18.9375 -6.617188 18.546875 -5.160156 17.765625 -3.859375 C 16.984375 -2.566406 15.910156 -1.550781 14.546875 -0.8125 C 13.179688 -0.0820312 11.644531 0.28125 9.9375 0.28125 Z M 9.9375 -2.96875 C 10.90625 -2.96875 11.78125 -3.191406 12.5625 -3.640625 C 13.351562 -4.085938 13.96875 -4.707031 14.40625 -5.5 C 14.851562 -6.300781 15.078125 -7.210938 15.078125 -8.234375 C 15.078125 -9.253906 14.851562 -10.164062 14.40625 -10.96875 C 13.96875 -11.769531 13.351562 -12.390625 12.5625 -12.828125 C 11.78125 -13.273438 10.90625 -13.5 9.9375 -13.5 C 8.957031 -13.5 8.078125 -13.273438 7.296875 -12.828125 C 6.515625 -12.390625 5.898438 -11.769531 5.453125 -10.96875 C 5.003906 -10.164062 4.78125 -9.253906 4.78125 -8.234375 C 4.78125 -7.210938 5.003906 -6.300781 5.453125 -5.5 C 5.898438 -4.707031 6.515625 -4.085938 7.296875 -3.640625 C 8.078125 -3.191406 8.957031 -2.96875 9.9375 -2.96875 Z M 9.9375 -2.96875 "/></g></g></g><g fill="#8cad2a" fill-opacity="0.4"><g transform="translate(93.784464, 54.712267)"><g><path d="M 9.078125 -16.46875 C 10.535156 -16.46875 11.800781 -16.222656 12.875 -15.734375 C 13.957031 -15.253906 14.785156 -14.566406 15.359375 -13.671875 C 15.941406 -12.773438 16.234375 -11.71875 16.234375 -10.5 C 16.234375 -9.289062 15.941406 -8.234375 15.359375 -7.328125 C 14.785156 -6.429688 13.957031 -5.742188 12.875 -5.265625 C 11.800781 -4.785156 10.535156 -4.546875 9.078125 -4.546875 L 5.765625 -4.546875 L 5.765625 0 L 1.953125 0 L 1.953125 -16.46875 Z M 8.875 -7.640625 C 10.019531 -7.640625 10.890625 -7.882812 11.484375 -8.375 C 12.078125 -8.875 12.375 -9.582031 12.375 -10.5 C 12.375 -11.425781 12.078125 -12.132812 11.484375 -12.625 C 10.890625 -13.113281 10.019531 -13.359375 8.875 -13.359375 L 5.765625 -13.359375 L 5.765625 -7.640625 Z M 8.875 -7.640625 "/></g></g></g><g fill="#8cad2a" fill-opacity="0.4"><g transform="translate(110.465947, 54.712267)"><g><path d="M 14.703125 -3.0625 L 14.703125 0 L 1.953125 0 L 1.953125 -16.46875 L 14.40625 -16.46875 L 14.40625 -13.40625 L 5.734375 -13.40625 L 5.734375 -9.84375 L 13.390625 -9.84375 L 13.390625 -6.875 L 5.734375 -6.875 L 5.734375 -3.0625 Z M 14.703125 -3.0625 "/></g></g></g><g fill="#8cad2a" fill-opacity="0.4"><g transform="translate(125.712196, 54.712267)"><g><path d="M 12.453125 0 L 9.265625 -4.59375 L 5.765625 -4.59375 L 5.765625 0 L 1.953125 0 L 1.953125 -16.46875 L 9.078125 -16.46875 C 10.535156 -16.46875 11.800781 -16.222656 12.875 -15.734375 C 13.957031 -15.253906 14.785156 -14.566406 15.359375 -13.671875 C 15.941406 -12.773438 16.234375 -11.71875 16.234375 -10.5 C 16.234375 -9.269531 15.9375 -8.210938 15.34375 -7.328125 C 14.757812 -6.441406 13.925781 -5.765625 12.84375 -5.296875 L 16.546875 0 Z M 12.375 -10.5 C 12.375 -11.425781 12.078125 -12.132812 11.484375 -12.625 C 10.890625 -13.113281 10.019531 -13.359375 8.875 -13.359375 L 5.765625 -13.359375 L 5.765625 -7.625 L 8.875 -7.625 C 10.019531 -7.625 10.890625 -7.875 11.484375 -8.375 C 12.078125 -8.875 12.375 -9.582031 12.375 -10.5 Z M 12.375 -10.5 "/></g></g></g><g fill="#8cad2a" fill-opacity="0.4"><g transform="translate(142.464275, 54.712267)"><g><path d="M 5.359375 -13.359375 L 0.09375 -13.359375 L 0.09375 -16.46875 L 14.453125 -16.46875 L 14.453125 -13.359375 L 9.171875 -13.359375 L 9.171875 0 L 5.359375 0 Z M 5.359375 -13.359375 "/></g></g></g><g fill="#8cad2a" fill-opacity="0.4"><g transform="translate(156.463508, 54.712267)"><g><path d="M 1.953125 -16.46875 L 5.765625 -16.46875 L 5.765625 0 L 1.953125 0 Z M 1.953125 -16.46875 "/></g></g></g><g fill="#8cad2a" fill-opacity="0.4"><g transform="translate(163.639478, 54.712267)"><g><path d="M 14.703125 -3.0625 L 14.703125 0 L 1.953125 0 L 1.953125 -16.46875 L 14.40625 -16.46875 L 14.40625 -13.40625 L 5.734375 -13.40625 L 5.734375 -9.84375 L 13.390625 -9.84375 L 13.390625 -6.875 L 5.734375 -6.875 L 5.734375 -3.0625 Z M 14.703125 -3.0625 "/></g></g></g><g fill="#8cad2a" fill-opacity="0.4"><g transform="translate(178.885727, 54.712267)"><g><path d="M 7.359375 0.28125 C 6.054688 0.28125 4.796875 0.101562 3.578125 -0.25 C 2.367188 -0.601562 1.394531 -1.0625 0.65625 -1.625 L 1.953125 -4.5 C 2.660156 -3.976562 3.5 -3.5625 4.46875 -3.25 C 5.445312 -2.9375 6.421875 -2.78125 7.390625 -2.78125 C 8.472656 -2.78125 9.269531 -2.9375 9.78125 -3.25 C 10.300781 -3.570312 10.5625 -4.003906 10.5625 -4.546875 C 10.5625 -4.929688 10.40625 -5.253906 10.09375 -5.515625 C 9.789062 -5.773438 9.398438 -5.984375 8.921875 -6.140625 C 8.453125 -6.296875 7.804688 -6.46875 6.984375 -6.65625 C 5.734375 -6.957031 4.707031 -7.253906 3.90625 -7.546875 C 3.101562 -7.847656 2.414062 -8.328125 1.84375 -8.984375 C 1.269531 -9.648438 0.984375 -10.53125 0.984375 -11.625 C 0.984375 -12.582031 1.242188 -13.445312 1.765625 -14.21875 C 2.285156 -15 3.066406 -15.613281 4.109375 -16.0625 C 5.148438 -16.519531 6.425781 -16.75 7.9375 -16.75 C 8.976562 -16.75 10 -16.625 11 -16.375 C 12.007812 -16.125 12.890625 -15.765625 13.640625 -15.296875 L 12.46875 -12.40625 C 10.945312 -13.257812 9.425781 -13.6875 7.90625 -13.6875 C 6.84375 -13.6875 6.054688 -13.515625 5.546875 -13.171875 C 5.035156 -12.828125 4.78125 -12.375 4.78125 -11.8125 C 4.78125 -11.25 5.070312 -10.828125 5.65625 -10.546875 C 6.25 -10.273438 7.148438 -10.003906 8.359375 -9.734375 C 9.609375 -9.441406 10.632812 -9.144531 11.4375 -8.84375 C 12.238281 -8.550781 12.925781 -8.082031 13.5 -7.4375 C 14.070312 -6.789062 14.359375 -5.921875 14.359375 -4.828125 C 14.359375 -3.878906 14.09375 -3.015625 13.5625 -2.234375 C 13.039062 -1.460938 12.253906 -0.847656 11.203125 -0.390625 C 10.148438 0.0546875 8.867188 0.28125 7.359375 0.28125 Z M 7.359375 0.28125 "/></g></g></g><g fill="#8cad2a" fill-opacity="1"><g transform="translate(41.034219, 54.712267)"><g><path d="M 9.078125 -16.46875 C 10.535156 -16.46875 11.800781 -16.222656 12.875 -15.734375 C 13.957031 -15.253906 14.785156 -14.566406 15.359375 -13.671875 C 15.941406 -12.773438 16.234375 -11.71875 16.234375 -10.5 C 16.234375 -9.289062 15.941406 -8.234375 15.359375 -7.328125 C 14.785156 -6.429688 13.957031 -5.742188 12.875 -5.265625 C 11.800781 -4.785156 10.535156 -4.546875 9.078125 -4.546875 L 5.765625 -4.546875 L 5.765625 0 L 1.953125 0 L 1.953125 -16.46875 Z M 8.875 -7.640625 C 10.019531 -7.640625 10.890625 -7.882812 11.484375 -8.375 C 12.078125 -8.875 12.375 -9.582031 12.375 -10.5 C 12.375 -11.425781 12.078125 -12.132812 11.484375 -12.625 C 10.890625 -13.113281 10.019531 -13.359375 8.875 -13.359375 L 5.765625 -13.359375 L 5.765625 -7.640625 Z M 8.875 -7.640625 "/></g></g></g><g fill="#8cad2a" fill-opacity="1"><g transform="translate(57.715704, 54.712267)"><g><path d="M 12.453125 0 L 9.265625 -4.59375 L 5.765625 -4.59375 L 5.765625 0 L 1.953125 0 L 1.953125 -16.46875 L 9.078125 -16.46875 C 10.535156 -16.46875 11.800781 -16.222656 12.875 -15.734375 C 13.957031 -15.253906 14.785156 -14.566406 15.359375 -13.671875 C 15.941406 -12.773438 16.234375 -11.71875 16.234375 -10.5 C 16.234375 -9.269531 15.9375 -8.210938 15.34375 -7.328125 C 14.757812 -6.441406 13.925781 -5.765625 12.84375 -5.296875 L 16.546875 0 Z M 12.375 -10.5 C 12.375 -11.425781 12.078125 -12.132812 11.484375 -12.625 C 10.890625 -13.113281 10.019531 -13.359375 8.875 -13.359375 L 5.765625 -13.359375 L 5.765625 -7.625 L 8.875 -7.625 C 10.019531 -7.625 10.890625 -7.875 11.484375 -8.375 C 12.078125 -8.875 12.375 -9.582031 12.375 -10.5 Z M 12.375 -10.5 "/></g></g></g><g fill="#8cad2a" fill-opacity="1"><g transform="translate(74.467779, 54.712267)"><g><path d="M 9.9375 0.28125 C 8.21875 0.28125 6.671875 -0.0820312 5.296875 -0.8125 C 3.929688 -1.550781 2.859375 -2.566406 2.078125 -3.859375 C 1.304688 -5.160156 0.921875 -6.617188 0.921875 -8.234375 C 0.921875 -9.847656 1.304688 -11.300781 2.078125 -12.59375 C 2.859375 -13.894531 3.929688 -14.910156 5.296875 -15.640625 C 6.671875 -16.378906 8.21875 -16.75 9.9375 -16.75 C 11.644531 -16.75 13.179688 -16.378906 14.546875 -15.640625 C 15.910156 -14.910156 16.984375 -13.894531 17.765625 -12.59375 C 18.546875 -11.300781 18.9375 -9.847656 18.9375 -8.234375 C 18.9375 -6.617188 18.546875 -5.160156 17.765625 -3.859375 C 16.984375 -2.566406 15.910156 -1.550781 14.546875 -0.8125 C 13.179688 -0.0820312 11.644531 0.28125 9.9375 0.28125 Z M 9.9375 -2.96875 C 10.90625 -2.96875 11.78125 -3.191406 12.5625 -3.640625 C 13.351562 -4.085938 13.96875 -4.707031 14.40625 -5.5 C 14.851562 -6.300781 15.078125 -7.210938 15.078125 -8.234375 C 15.078125 -9.253906 14.851562 -10.164062 14.40625 -10.96875 C 13.96875 -11.769531 13.351562 -12.390625 12.5625 -12.828125 C 11.78125 -13.273438 10.90625 -13.5 9.9375 -13.5 C 8.957031 -13.5 8.078125 -13.273438 7.296875 -12.828125 C 6.515625 -12.390625 5.898438 -11.769531 5.453125 -10.96875 C 5.003906 -10.164062 4.78125 -9.253906 4.78125 -8.234375 C 4.78125 -7.210938 5.003906 -6.300781 5.453125 -5.5 C 5.898438 -4.707031 6.515625 -4.085938 7.296875 -3.640625 C 8.078125 -3.191406 8.957031 -2.96875 9.9375 -2.96875 Z M 9.9375 -2.96875 "/></g></g></g><g fill="#8cad2a" fill-opacity="1"><g transform="translate(93.784464, 54.712267)"><g><path d="M 9.078125 -16.46875 C 10.535156 -16.46875 11.800781 -16.222656 12.875 -15.734375 C 13.957031 -15.253906 14.785156 -14.566406 15.359375 -13.671875 C 15.941406 -12.773438 16.234375 -11.71875 16.234375 -10.5 C 16.234375 -9.289062 15.941406 -8.234375 15.359375 -7.328125 C 14.785156 -6.429688 13.957031 -5.742188 12.875 -5.265625 C 11.800781 -4.785156 10.535156 -4.546875 9.078125 -4.546875 L 5.765625 -4.546875 L 5.765625 0 L 1.953125 0 L 1.953125 -16.46875 Z M 8.875 -7.640625 C 10.019531 -7.640625 10.890625 -7.882812 11.484375 -8.375 C 12.078125 -8.875 12.375 -9.582031 12.375 -10.5 C 12.375 -11.425781 12.078125 -12.132812 11.484375 -12.625 C 10.890625 -13.113281 10.019531 -13.359375 8.875 -13.359375 L 5.765625 -13.359375 L 5.765625 -7.640625 Z M 8.875 -7.640625 "/></g></g></g><g fill="#8cad2a" fill-opacity="1"><g transform="translate(110.465947, 54.712267)"><g><path d="M 14.703125 -3.0625 L 14.703125 0 L 1.953125 0 L 1.953125 -16.46875 L 14.40625 -16.46875 L 14.40625 -13.40625 L 5.734375 -13.40625 L 5.734375 -9.84375 L 13.390625 -9.84375 L 13.390625 -6.875 L 5.734375 -6.875 L 5.734375 -3.0625 Z M 14.703125 -3.0625 "/></g></g></g><g fill="#8cad2a" fill-opacity="1"><g transform="translate(125.712196, 54.712267)"><g><path d="M 12.453125 0 L 9.265625 -4.59375 L 5.765625 -4.59375 L 5.765625 0 L 1.953125 0 L 1.953125 -16.46875 L 9.078125 -16.46875 C 10.535156 -16.46875 11.800781 -16.222656 12.875 -15.734375 C 13.957031 -15.253906 14.785156 -14.566406 15.359375 -13.671875 C 15.941406 -12.773438 16.234375 -11.71875 16.234375 -10.5 C 16.234375 -9.269531 15.9375 -8.210938 15.34375 -7.328125 C 14.757812 -6.441406 13.925781 -5.765625 12.84375 -5.296875 L 16.546875 0 Z M 12.375 -10.5 C 12.375 -11.425781 12.078125 -12.132812 11.484375 -12.625 C 10.890625 -13.113281 10.019531 -13.359375 8.875 -13.359375 L 5.765625 -13.359375 L 5.765625 -7.625 L 8.875 -7.625 C 10.019531 -7.625 10.890625 -7.875 11.484375 -8.375 C 12.078125 -8.875 12.375 -9.582031 12.375 -10.5 Z M 12.375 -10.5 "/></g></g></g><g fill="#8cad2a" fill-opacity="1"><g transform="translate(142.464275, 54.712267)"><g><path d="M 5.359375 -13.359375 L 0.09375 -13.359375 L 0.09375 -16.46875 L 14.453125 -16.46875 L 14.453125 -13.359375 L 9.171875 -13.359375 L 9.171875 0 L 5.359375 0 Z M 5.359375 -13.359375 "/></g></g></g><g fill="#8cad2a" fill-opacity="1"><g transform="translate(156.463508, 54.712267)"><g><path d="M 1.953125 -16.46875 L 5.765625 -16.46875 L 5.765625 0 L 1.953125 0 Z M 1.953125 -16.46875 "/></g></g></g><g fill="#8cad2a" fill-opacity="1"><g transform="translate(163.639478, 54.712267)"><g><path d="M 14.703125 -3.0625 L 14.703125 0 L 1.953125 0 L 1.953125 -16.46875 L 14.40625 -16.46875 L 14.40625 -13.40625 L 5.734375 -13.40625 L 5.734375 -9.84375 L 13.390625 -9.84375 L 13.390625 -6.875 L 5.734375 -6.875 L 5.734375 -3.0625 Z M 14.703125 -3.0625 "/></g></g></g><g fill="#8cad2a" fill-opacity="1"><g transform="translate(178.885727, 54.712267)"><g><path d="M 7.359375 0.28125 C 6.054688 0.28125 4.796875 0.101562 3.578125 -0.25 C 2.367188 -0.601562 1.394531 -1.0625 0.65625 -1.625 L 1.953125 -4.5 C 2.660156 -3.976562 3.5 -3.5625 4.46875 -3.25 C 5.445312 -2.9375 6.421875 -2.78125 7.390625 -2.78125 C 8.472656 -2.78125 9.269531 -2.9375 9.78125 -3.25 C 10.300781 -3.570312 10.5625 -4.003906 10.5625 -4.546875 C 10.5625 -4.929688 10.40625 -5.253906 10.09375 -5.515625 C 9.789062 -5.773438 9.398438 -5.984375 8.921875 -6.140625 C 8.453125 -6.296875 7.804688 -6.46875 6.984375 -6.65625 C 5.734375 -6.957031 4.707031 -7.253906 3.90625 -7.546875 C 3.101562 -7.847656 2.414062 -8.328125 1.84375 -8.984375 C 1.269531 -9.648438 0.984375 -10.53125 0.984375 -11.625 C 0.984375 -12.582031 1.242188 -13.445312 1.765625 -14.21875 C 2.285156 -15 3.066406 -15.613281 4.109375 -16.0625 C 5.148438 -16.519531 6.425781 -16.75 7.9375 -16.75 C 8.976562 -16.75 10 -16.625 11 -16.375 C 12.007812 -16.125 12.890625 -15.765625 13.640625 -15.296875 L 12.46875 -12.40625 C 10.945312 -13.257812 9.425781 -13.6875 7.90625 -13.6875 C 6.84375 -13.6875 6.054688 -13.515625 5.546875 -13.171875 C 5.035156 -12.828125 4.78125 -12.375 4.78125 -11.8125 C 4.78125 -11.25 5.070312 -10.828125 5.65625 -10.546875 C 6.25 -10.273438 7.148438 -10.003906 8.359375 -9.734375 C 9.609375 -9.441406 10.632812 -9.144531 11.4375 -8.84375 C 12.238281 -8.550781 12.925781 -8.082031 13.5 -7.4375 C 14.070312 -6.789062 14.359375 -5.921875 14.359375 -4.828125 C 14.359375 -3.878906 14.09375 -3.015625 13.5625 -2.234375 C 13.039062 -1.460938 12.253906 -0.847656 11.203125 -0.390625 C 10.148438 0.0546875 8.867188 0.28125 7.359375 0.28125 Z M 7.359375 0.28125 "/></g></g></g></svg>