<svg xmlns="http://www.w3.org/2000/svg" xmlns:xlink="http://www.w3.org/1999/xlink" width="48" zoomAndPan="magnify" viewBox="0 0 36 36.000001" height="48" preserveAspectRatio="xMidYMid meet" version="1.0"><defs><clipPath id="37fff02731"><path d="M 0.488281 0 L 35.511719 0 L 35.511719 35.027344 L 0.488281 35.027344 Z M 0.488281 0 " clip-rule="nonzero"/></clipPath></defs><g clip-path="url(#37fff02731)"><path fill="#16539B" d="M 18 0 C 8.34375 0 0.488281 7.855469 0.488281 17.511719 C 0.488281 27.171875 8.34375 35.027344 18 35.027344 C 27.65625 35.027344 35.511719 27.171875 35.511719 17.511719 C 35.511719 7.855469 27.65625 0 18 0 Z M 18 4.570312 C 20.9375 4.570312 23.332031 6.960938 23.332031 9.898438 C 23.332031 12.839844 20.9375 15.230469 18 15.230469 C 15.0625 15.230469 12.667969 12.839844 12.667969 9.898438 C 12.667969 6.960938 15.0625 4.570312 18 4.570312 Z M 27.136719 27.414062 L 8.863281 27.414062 C 8.441406 27.414062 8.101562 27.070312 8.101562 26.652344 C 8.101562 21.191406 12.542969 16.753906 18 16.753906 C 23.457031 16.753906 27.898438 21.191406 27.898438 26.652344 C 27.898438 27.070312 27.558594 27.414062 27.136719 27.414062 Z M 27.136719 27.414062 " fill-opacity="1" fill-rule="nonzero"/></g></svg>